<svg width="110" height="110" viewBox="0 0 110 110" fill="none" xmlns="http://www.w3.org/2000/svg">
<rect width="110" height="110" rx="30" fill="white"/>
<path d="M94.6731 39.9565L94.5766 39.7811C93.7783 38.2811 92.0591 36.5004 88.3662 36.5004C86.7872 36.5004 85.2171 36.825 84.0768 37.0618C83.7347 37.132 83.4101 37.2022 83.1821 37.2373C81.4979 37.518 76.7523 39.5969 73.1647 41.2372C73.1033 40.5618 73.0156 39.86 72.8928 39.2285C72.5945 37.6495 71.5156 35.7461 70.6033 34.4829C68.9367 32.1847 67.1911 31.0269 65.4192 31.0269C65.1385 31.0269 64.8578 31.0532 64.5947 31.1146C63.1123 31.4304 60.5158 33.0268 58.1738 34.6408C57.7878 34.5268 57.3843 34.4742 56.9808 34.4742C55.551 34.4742 54.5423 35.1584 54.1388 35.4917C46.6126 41.5179 37.0864 48.1669 30.9638 51.6668C27.9901 53.3685 24.9376 54.7457 21.9902 56.0702C20.499 56.7457 18.9552 57.4386 17.4289 58.1667C12.2711 60.6491 11.6834 66.3683 12.1483 69.3595L12.2711 70.1489L12.7711 70.7805C14.4641 72.912 18.7096 75.719 36.7356 78.5084C38.718 78.8154 40.8408 78.9733 43.0512 78.9733C52.2353 78.9733 61.279 76.2979 64.8228 74.605C65.1824 74.4383 65.5947 74.2629 66.042 74.0787C66.9543 74.4383 68.0069 74.6225 69.1735 74.6225C69.9805 74.6225 70.8577 74.5348 71.7788 74.3594C78.4541 73.0962 84.0855 72.912 86.8486 72.912C88.2521 72.912 89.0591 72.9559 89.0679 72.9559L89.217 72.9646L89.3311 72.8682C89.4451 72.7717 89.5416 72.6664 89.6293 72.5699H95.2695C95.6643 72.5699 95.9888 72.2454 95.9888 71.8506C95.9888 71.4559 95.6643 71.1314 95.2695 71.1314H89.6118C89.3047 70.798 88.8749 70.6314 88.8047 70.605L88.7521 70.5875H88.6995C88.6819 70.5875 87.3399 70.4998 85.2697 70.4998C82.5417 70.4998 78.7962 70.6489 74.9717 71.2629C75.0594 71.2366 75.1559 71.2103 75.2348 71.1927C76.305 71.0173 82.6996 69.991 86.9802 69.0788C92.0503 67.9998 96.2432 65.2192 96.4186 65.0964L97.6642 64.2543L97.7607 62.7543C98.7256 47.5704 96.2871 42.9915 94.6731 39.9565ZM71.4981 45.3687C71.4981 45.3687 81.6382 40.5881 83.6908 40.246C84.7961 40.0618 86.6557 39.5442 88.3749 39.5442C89.0328 39.5442 89.5416 39.5881 90.0065 39.9127C90.3047 40.1583 90.4802 40.4828 90.4802 40.86C90.4714 41.4916 90.1556 42.0968 89.524 42.667C89.3574 42.8161 89.1468 43.0091 88.91 43.2371C86.9364 45.0617 82.3224 49.3423 78.8576 48.9651C75.612 48.6055 74.0331 47.6143 71.3314 45.2283L71.4981 45.3687ZM78.726 50.0967C82.7084 50.5353 87.4188 46.1669 89.6732 44.0705C89.91 43.8512 90.1117 43.667 90.2696 43.5178C91.1556 42.7284 91.6029 41.8337 91.6117 40.86C91.6117 40.8337 91.6117 40.8074 91.6117 40.7811C91.717 40.9126 91.8047 41.053 91.8924 41.2109C93.138 43.5529 94.9362 46.4915 94.945 56.0965C91.2345 58.1667 86.1469 59.3596 86.103 59.3684C86.0241 59.386 78.2699 60.7456 75.8401 61.307C74.8226 61.5438 72.998 62.1052 70.884 62.7543C68.9192 63.3596 66.6473 64.0525 64.4456 64.6753C64.5771 63.1227 64.9631 61.4473 65.5947 59.7544C69.042 50.5177 67.5946 45.7634 67.121 44.202C67.0157 43.8687 66.849 43.4564 66.6122 43.0179C67.2613 43.2722 67.9104 43.6757 68.5508 44.2634L68.7437 44.4389C72.7787 48.1055 74.4454 49.623 78.726 50.0967ZM65.235 34.0882C65.2964 34.0707 65.3578 34.0707 65.428 34.0707C67.042 34.0707 69.5771 38.0355 69.9104 39.7898C70.2262 41.4828 70.2963 43.9652 70.3051 44.3073C70.0507 44.0792 69.7876 43.8424 69.5156 43.588L69.3227 43.4126C68.0946 42.2986 66.8578 41.7459 65.6561 41.5617C64.314 39.8512 62.1649 38.1758 59.3053 38.1758C58.9983 38.1758 58.6825 38.2022 58.3667 38.2372C58.7439 37.9565 63.7 34.4215 65.235 34.0882ZM56.9808 37.518C57.3668 37.518 57.8317 37.6846 58.3229 38.2372C57.8667 38.2986 57.4106 38.3951 56.9545 38.5355L56.3755 37.6583C56.5334 37.5794 56.744 37.518 56.9808 37.518ZM55.5598 37.3425C55.6299 37.3425 55.6826 37.3513 55.7177 37.3513L56.5773 38.6407L58.0071 40.7986L59.665 43.3073L59.5334 43.4214C59.5334 43.4214 59.5246 43.4214 59.5246 43.4301L59.4457 43.5003C59.1913 43.6845 58.9632 43.8599 58.7527 44.0354C58.3317 43.8073 57.8755 43.588 57.3668 43.395L57.3229 43.3775C56.1036 42.2459 54.5773 38.9039 54.3405 38.3776C54.6914 37.5267 55.2001 37.3425 55.5598 37.3425ZM63.1123 42.8512C63.2088 42.8249 63.3052 42.7986 63.4017 42.7722C63.7087 43.1845 64.007 43.6757 64.3052 44.2371C64.0508 44.4564 63.8842 44.7722 63.8842 45.1231C63.8842 45.7634 64.4017 46.2897 65.0421 46.2985C65.9894 50.5002 64.2789 56.0351 62.5421 61.0087C62.086 62.3245 61.7702 63.8508 61.6912 65.3946C61.4544 65.456 61.2088 65.5174 60.972 65.5701C54.3054 67.149 48.0775 67.7981 41.9372 67.5612C39.5338 67.4648 36.7005 67.1227 33.8672 66.6665C33.9549 66.0262 34.0163 65.4209 34.0426 64.842C34.0426 64.842 36.1742 61.9473 37.8145 60.3421C38.3671 60.6842 39.7355 61.3684 39.7355 61.3684C39.7355 61.3684 39.7267 61.3596 39.718 61.3508C39.9285 61.5438 40.2004 61.6578 40.4987 61.6578C41.1478 61.6578 41.6741 61.1315 41.6741 60.4824C41.6741 59.9298 41.2969 59.4737 40.7794 59.3509C40.5337 59.1667 40.2092 58.9211 39.8232 58.614C40.2794 58.2807 40.718 57.9913 41.0951 57.7983C41.4899 57.5965 41.8846 57.3948 42.2793 57.1842C42.7705 57.5176 43.1916 57.8334 43.5074 58.0965C43.5249 58.7281 44.0425 59.2281 44.674 59.2281C45.3231 59.2281 45.8494 58.7018 45.8494 58.0527C45.8494 57.6141 45.6038 57.2369 45.253 57.0351C45.0863 56.8158 44.7881 56.4562 44.3758 56.0351C45.1214 55.6141 45.8407 55.2018 46.4898 54.8159C47.0863 55.2545 47.7529 55.8334 48.481 56.579L48.5424 56.6404H48.5687C48.7792 56.8597 49.0774 57 49.4108 57C50.0599 57 50.5862 56.4737 50.5862 55.8246C50.5862 55.6492 50.5423 55.4825 50.4809 55.3334C50.4722 55.3159 50.4634 55.2983 50.4458 55.272L50.4108 55.2281C50.3932 55.2018 50.2967 55.0878 50.1564 54.9211C49.8844 54.5966 49.3932 54.0527 48.7441 53.4475C49.2704 53.1229 49.5862 52.9212 49.6037 52.9124C49.6739 52.8685 50.2002 52.5089 50.9721 51.9563C51.4107 52.3335 52.5247 53.3685 52.5774 53.3685C52.7879 53.7019 53.1475 53.9299 53.5774 53.9299C54.2265 53.9299 54.7528 53.4036 54.7528 52.7545C54.7528 52.4475 54.63 52.1668 54.437 51.9563C54.4458 51.9212 53.8931 51.0703 53.1563 50.3598C53.6124 50.0177 54.0949 49.6493 54.5773 49.2721C55.1036 49.6318 55.665 50.0791 56.244 50.623C56.4282 51.0265 56.8317 51.3072 57.3054 51.3072C57.9545 51.3072 58.4808 50.7809 58.4808 50.1318C58.4808 49.9212 58.4194 49.7283 58.3229 49.5616C58.2439 49.3949 57.7615 48.4827 56.6475 47.5529C57.0861 47.1757 57.4983 46.7985 57.8843 46.4213C58.6474 46.9476 59.1474 47.2897 60.0948 48.2809C60.3053 48.5704 60.6474 48.7634 61.0421 48.7634C61.6912 48.7634 62.2175 48.2371 62.2175 47.5879C62.2175 47.2546 62.0772 46.9564 61.8579 46.7459C61.8404 46.7195 61.4544 45.8336 59.7702 44.6494C60.1913 44.3073 60.6562 43.974 61.1737 43.667C61.7526 43.3424 62.393 43.0529 63.0859 42.8249C63.1035 42.86 63.1123 42.8512 63.1123 42.8512ZM59.8843 47.5616C59.8667 47.5441 59.8404 47.5265 59.8141 47.5002C57.1475 45.0617 55.2177 44.7459 54.7352 44.702L53.7703 43.0091C55.1475 43.0968 56.3229 43.395 57.3317 43.7898L58.6562 44.4213C59.7614 45.0441 60.5597 45.7546 61.0948 46.316C61.1474 46.3774 61.1912 46.4213 61.2351 46.4739C61.5421 46.8248 61.4632 46.8511 61.5246 46.9476C61.586 47.5792 60.6649 47.9125 60.3492 48.009C60.0597 47.702 60.0948 47.7546 59.8843 47.5616ZM56.8843 45.8248C56.5948 46.0967 56.2878 46.3774 55.9633 46.6581L54.9633 45.1143C55.3405 45.1757 56.0071 45.3599 56.8843 45.8248ZM56.3229 47.7897C56.858 48.2195 57.244 48.6493 57.5071 48.9914C57.7703 49.3335 57.9194 49.5967 57.972 49.7107C57.8404 50.2633 56.9983 50.544 56.744 50.5703C56.5422 50.3774 56.3492 50.2019 56.1563 50.0265C53.3931 47.5967 51.1914 47.2985 50.6827 47.2546L50.5774 47.0704C50.3844 46.6845 50.1739 46.2722 49.9546 45.8687C50.9283 45.8511 51.7879 45.9388 52.5511 46.088C52.5511 46.088 52.9458 46.1757 53.3581 46.2809C54.2703 46.5441 55.0247 46.895 55.6299 47.2897C55.858 47.4564 56.3229 47.7897 56.3229 47.7897ZM53.551 48.6493C53.1212 48.9827 52.709 49.2984 52.3055 49.6054C52.0511 49.3862 51.7704 49.1669 51.4897 48.9563C51.3493 48.6669 51.1388 48.2107 50.8757 47.6757C51.323 47.7371 52.2967 47.9564 53.551 48.6493ZM51.4458 49.4125C52.5335 50.237 53.4019 51.1493 53.8317 51.623C53.9458 51.7458 54.0335 51.851 54.0773 51.9036C53.9458 52.8598 53.1651 53.0089 52.709 53.0089C52.6739 53.0089 52.6475 53.0089 52.6212 53.0089C52.5511 52.9387 52.4897 52.8773 52.4195 52.8071C49.7704 50.0703 47.9547 49.6493 47.1038 49.6493C46.981 49.6493 46.8845 49.6581 46.8056 49.6669L46.5512 49.0967L46.0775 48.009C46.4985 47.8248 46.9547 47.7283 47.4371 47.7283C47.5512 47.7283 47.6564 47.7458 47.7705 47.7546C48.209 47.8599 50.4809 48.3686 51.4458 49.4125ZM47.1038 50.0265C47.5599 50.0265 48.5687 50.1756 50.0511 51.237C49.4108 51.6931 48.9985 51.9651 48.9897 51.9738C48.981 51.9826 48.6301 52.2019 48.0599 52.5528L48.0073 52.3949L46.9722 50.0353C47.0073 50.0353 47.0512 50.0265 47.1038 50.0265ZM49.4108 54.658C49.7178 54.9825 49.9371 55.2457 50.0423 55.3773C49.6388 56.0878 48.9371 56.2281 48.7003 56.2544C48.5511 56.0965 48.402 55.9562 48.2529 55.8159C45.6126 53.2896 43.8144 53.0001 43.139 53.0001C43.1039 53.0001 43.0688 53.0001 43.0337 53.0001L42.1653 50.93C42.3232 50.9124 42.4811 50.9037 42.639 50.9037C43.5951 50.9037 44.5337 51.1756 45.4021 51.5879C46.174 52.0615 47.0161 52.5878 47.4985 52.9036C48.288 53.5177 48.9459 54.1668 49.4108 54.658ZM43.1302 53.3773C43.4372 53.3773 44.2354 53.465 45.4284 54.1317C44.9196 54.4299 44.3846 54.7369 43.8232 55.0527L43.7968 54.9562C43.7881 54.9387 43.4811 54.2896 43.0863 53.3861C43.1039 53.3773 43.1126 53.3773 43.1302 53.3773ZM44.6477 56.8948C44.8582 57.1404 44.9986 57.3246 45.0688 57.4123C44.981 57.7983 44.7793 58.2193 44.3407 58.2193C44.2793 58.2193 44.2179 58.2105 44.1916 58.2018C44.06 58.0527 43.8495 57.8684 43.6039 57.6755C42.0337 56.4299 38.5864 54.4124 37.8847 54.0001C38.0513 53.4913 38.832 53.4124 38.9724 53.4036C41.8758 54.0615 43.8144 55.9299 44.6477 56.8948ZM41.2092 56.4737C41.0074 56.579 40.7969 56.6843 40.5952 56.7895C40.2443 56.965 39.8496 57.2106 39.4461 57.4913C39.4197 57.4299 39.3846 57.3597 39.3408 57.2807C39.0338 56.6404 38.5601 55.6404 38.0864 54.5615C38.7706 54.965 40.025 55.7106 41.2092 56.4737ZM62.3667 41.9126C62.3491 41.9126 62.3316 41.9214 62.3228 41.9302C62.2877 41.9477 62.2439 41.9565 62.2088 41.974C61.4281 42.2723 60.6825 42.6758 60.0334 43.1056C60.0246 43.1143 60.0158 43.1143 60.0071 43.1231L58.358 40.6407C58.5948 40.553 59.0246 40.4302 59.5597 40.4302C60.393 40.4302 61.4807 40.7284 62.6035 41.8337C62.5246 41.86 62.4456 41.8863 62.3667 41.9126ZM54.323 39.2197C54.8054 40.2372 55.7177 42.0266 56.5948 43.1319C55.665 42.8512 54.6124 42.6582 53.4282 42.6056H53.3405L52.209 40.8512C52.9282 40.3074 53.6388 39.7635 54.323 39.2197ZM51.4195 40.3249L55.6212 46.8423C54.8317 46.3424 53.9896 46.0617 53.4107 45.9213C53.2002 45.8599 52.9809 45.8073 52.7528 45.7634L49.7441 41.9038C49.6652 41.1933 50.823 40.5705 51.4195 40.3249ZM49.8406 42.6407L52.2002 45.6494C51.4634 45.5353 50.6564 45.4739 49.7529 45.5003C49.3494 44.7634 48.9371 44.0617 48.5862 43.5705C49.0073 43.2547 49.4195 42.9477 49.8406 42.6407ZM47.8319 43.2635C48.1827 43.5442 48.7441 44.4564 49.3231 45.5178L50.2265 47.2546C50.4546 47.7107 50.6651 48.1406 50.8581 48.5353C49.9283 47.9476 48.8932 47.4827 47.8582 47.3774L46.288 44.2985C46.6915 43.3863 47.5775 43.2722 47.8319 43.2635ZM46.3231 45.202L47.4196 47.3423C46.8933 47.3423 46.4021 47.4564 45.9372 47.6581L45.2091 46.0003C45.5775 45.7371 45.9547 45.4739 46.3231 45.202ZM44.5424 45.4389L45.5863 47.8248L46.5249 49.9563L46.5424 49.9914L47.6476 52.5177C47.0161 52.0352 46.2968 51.5703 45.5161 51.2019C45.2617 51.044 45.0249 50.8949 44.8056 50.7633L43.1477 46.3599C43.3846 45.6231 44.2179 45.4739 44.5424 45.4389ZM43.1477 47.4476L44.4021 50.7896C43.8319 50.623 43.2355 50.5177 42.6302 50.5177C42.4021 50.5177 42.1741 50.5353 41.946 50.5616C41.6916 49.8774 41.4811 49.2195 41.3408 48.6756C41.9372 48.2809 42.5425 47.8686 43.1477 47.4476ZM40.8232 47.8335C40.9109 49.6932 43.3495 54.886 43.446 55.079V55.0878C42.5425 54.3597 40.9285 53.6141 40.5513 53.4475L39.0864 48.8862C39.4899 48.2371 40.3934 47.9388 40.8232 47.8335ZM39.104 50.1844L40.1127 53.3334C39.7618 53.2106 39.4022 53.0966 39.0162 53.0177L38.9899 53.0089H38.9636C38.9197 53.0089 38.0601 53.0527 37.6566 53.5791C37.3759 52.8949 37.1128 52.2194 36.9022 51.6054C37.6303 51.1493 38.3584 50.6756 39.104 50.1844ZM36.2531 50.6844C36.4724 51.6054 36.9549 52.8685 37.4724 54.0878L37.5338 54.2369C38.0777 55.5001 38.6566 56.7106 38.9987 57.4474C39.0075 57.4737 39.104 57.6667 39.104 57.6667L38.8496 57.8948C38.8496 57.8948 37.0601 56.3948 36.4373 55.8509C36.4286 55.8422 36.4198 55.8422 36.4198 55.8334C36.3321 55.7545 36.2531 55.6755 36.183 55.5966C35.3672 54.7194 34.7181 52.1668 34.6304 51.7984C34.8672 50.9738 35.8584 50.7458 36.2531 50.6844ZM34.5865 53.0615C34.7532 53.5966 34.9725 54.2282 35.2356 54.7896C34.6654 54.2633 34.2269 53.8247 33.9023 53.4738C34.1304 53.3422 34.3584 53.2019 34.5865 53.0615ZM32.7795 52.7545C33.0164 53.0791 33.9286 54.2194 36.2531 56.193C37.9285 57.6141 39.3232 58.7105 40.1829 59.3772C40.5864 59.6842 40.8758 59.9035 41.025 60.0088C40.7794 60.7807 40.2881 60.9473 39.911 60.9473C39.7881 60.9473 39.6917 60.9298 39.6829 60.9298C39.5864 60.8859 39.4811 60.8333 39.3846 60.7807C39.3934 60.8158 39.411 60.8508 39.4285 60.8859C39.411 60.8508 39.3934 60.807 39.3846 60.7807C34.9286 58.5702 31.4725 54.3071 31.0602 53.7808C31.1041 53.044 32.4023 52.8071 32.7795 52.7545ZM31.4637 54.8685C32.4637 56.0088 34.4023 58.0351 36.8321 59.7105C35.7181 60.807 34.683 62.035 34.0163 63.1315C33.8497 61.1842 33.2269 59.6842 32.1392 58.6579C30.4287 57.0439 28.0866 57.0439 26.9814 57.1492C28.4726 56.4386 29.9638 55.693 31.4637 54.8685ZM26.2796 57.4649C26.3147 57.4562 29.762 56.9299 31.876 58.9298C32.9988 59.9912 33.6041 61.6052 33.6742 63.7455C33.683 64.0964 33.6742 64.7367 33.6742 64.7367C33.6479 65.3244 33.5953 65.9472 33.4988 66.6051C31.7357 66.3156 29.9813 65.9823 28.3322 65.649C28.5603 62.7543 28.0428 60.6842 26.7884 59.4912C25.8674 58.6228 24.7884 58.4474 24.1832 58.4298C24.9112 58.0965 26.2796 57.4649 26.2796 57.4649ZM17.6482 61.6052C17.6482 61.6052 18.2622 61.1579 18.7535 60.921C20.3938 60.1316 23.5165 58.7281 23.5165 58.7281C23.5341 58.7281 25.3147 58.614 26.5252 59.7719C27.6919 60.8772 28.1656 62.8333 27.955 65.5788C24.3586 64.8244 21.3236 64.0525 19.9552 63.5964C18.078 62.9736 17.6658 62.4298 17.5868 62.1578C17.5254 61.9824 17.6395 61.614 17.6482 61.6052ZM43.06 75.9295C41.1039 75.9295 39.139 75.7979 37.2093 75.4997C26.1568 73.7892 17.3324 71.6226 15.1658 68.8946C15.1658 68.8946 14.9904 67.7542 15.1834 66.2893C16.3851 67.3507 18.35 68.6402 23.42 69.491C23.4551 69.4998 23.4902 69.4998 23.5165 69.4998C23.999 69.4998 24.4113 69.1402 24.4639 68.6489C24.5165 68.1226 24.1306 67.6928 23.613 67.6051C17.9552 66.6139 15.9026 64.3332 15.8588 64.2806C15.8237 64.2367 15.7886 64.1929 15.7448 64.149C16.0605 63.3947 16.5167 62.6491 17.1833 62.0087C17.1833 62.0789 17.1833 62.1578 17.2096 62.2456C17.3763 62.8508 18.2535 63.421 19.8324 63.9473C21.2096 64.4122 24.2884 65.1929 27.9287 65.956C27.8673 66.956 28.1042 67.763 28.648 68.4121C30.0603 70.07 33.3584 70.3156 36.8496 70.57C41.7179 70.9296 47.2266 71.3331 49.095 75.5523C47.1477 75.7892 45.1126 75.9295 43.06 75.9295ZM49.4985 75.4997C47.5599 71.0261 41.8758 70.5612 36.8847 70.1928C33.4725 69.9384 30.2532 69.7015 28.9463 68.1665C28.4726 67.6139 28.2708 66.9121 28.3059 66.035C32.7357 66.9472 37.9285 67.7893 41.9285 67.9472C42.7618 67.9823 43.5863 67.9998 44.4196 67.9998C49.788 67.9998 55.2615 67.3244 61.0597 65.956C61.2614 65.9122 61.4719 65.8595 61.6737 65.8069C61.6211 68.0086 62.0509 70.2191 63.2263 71.8769C63.2526 71.912 63.2702 71.9384 63.2965 71.9734C60.9369 73.0348 55.744 74.7278 49.4985 75.4997ZM75.2962 71.605C75.3489 71.5963 75.4015 71.5875 75.4541 71.5787C75.7348 71.5348 76.0243 71.4998 76.305 71.4559C76.3927 71.4471 76.4717 71.4384 76.5594 71.4208C76.7611 71.3945 76.9629 71.3682 77.1646 71.3419C77.2699 71.3331 77.3664 71.3156 77.4716 71.3068C77.6558 71.2892 77.84 71.2629 78.0243 71.2454C78.1207 71.2366 78.226 71.2278 78.3225 71.2103C78.5242 71.1927 78.7172 71.1752 78.919 71.1577C78.9979 71.1489 79.0681 71.1401 79.147 71.1401C79.419 71.1138 79.6821 71.0963 79.9453 71.0787C80.0067 71.0699 80.0681 71.0699 80.1295 71.0699C80.3312 71.0524 80.533 71.0436 80.726 71.0261C80.8224 71.0173 80.9102 71.0173 81.0067 71.0085C81.1733 70.9998 81.34 70.991 81.5066 70.9822C81.6031 70.9735 81.6908 70.9735 81.7873 70.9647C81.954 70.9559 82.1207 70.9471 82.2873 70.9384C82.3663 70.9384 82.4452 70.9296 82.5154 70.9296C82.7522 70.9208 82.9803 70.9121 83.2084 70.9033C83.2347 70.9033 83.261 70.9033 83.2961 70.9033C83.4978 70.8945 83.6908 70.8945 83.8838 70.8857C83.9627 70.8857 84.0417 70.8857 84.1119 70.8857C84.2522 70.8857 84.3926 70.877 84.5241 70.877C84.6031 70.877 84.682 70.877 84.761 70.877C84.8925 70.877 85.0241 70.877 85.1469 70.877C85.1908 70.877 85.2434 70.877 85.2873 70.877C85.3224 70.877 85.3487 70.877 85.3838 70.877C85.4276 70.877 85.4715 70.877 85.5153 70.877C85.6294 70.877 85.7434 70.877 85.8574 70.877C85.8925 70.877 85.9276 70.877 85.9627 70.877C86.103 70.877 86.2346 70.877 86.3662 70.8857H86.375C86.5153 70.8857 86.6381 70.8857 86.7697 70.8945C86.796 70.8945 86.8223 70.8945 86.8486 70.8945C86.9451 70.8945 87.0416 70.9033 87.1293 70.9033C87.1557 70.9033 87.1907 70.9033 87.2171 70.9033C87.3135 70.9033 87.4188 70.9121 87.5065 70.9121C87.5153 70.9121 87.5241 70.9121 87.5241 70.9121C87.6293 70.9121 87.7258 70.9208 87.8135 70.9208C87.8311 70.9208 87.8486 70.9208 87.8662 70.9208C87.9363 70.9208 87.9977 70.9296 88.0591 70.9296C88.0855 70.9296 88.103 70.9296 88.1293 70.9296C88.182 70.9296 88.2346 70.9384 88.2872 70.9384C88.296 70.9384 88.3135 70.9384 88.3223 70.9384C88.3837 70.9384 88.4363 70.9471 88.4802 70.9471C88.489 70.9471 88.489 70.9471 88.489 70.9471C88.5328 70.9471 88.5679 70.9471 88.5942 70.9559C88.603 70.9559 88.6118 70.9559 88.6205 70.9559C88.6381 70.9559 88.6556 70.9559 88.6644 70.9559C88.6732 70.9559 88.6732 70.9559 88.6819 70.9559C88.6907 70.9559 88.6995 70.9559 88.6995 70.9559C88.6995 70.9559 88.7083 70.9559 88.717 70.9647C88.7258 70.9647 88.7258 70.9647 88.7346 70.9735C88.7521 70.9822 88.7609 70.9822 88.7872 70.991C88.796 70.991 88.8048 70.9998 88.8135 70.9998C88.8311 71.0085 88.8574 71.0173 88.8837 71.0349C88.8925 71.0436 88.9012 71.0436 88.9188 71.0524C89.3135 71.2542 90.024 71.7717 89.1205 72.5524L89.1118 72.5611C89.1118 72.5611 89.0942 72.5611 89.0854 72.5611C89.0767 72.5611 89.0679 72.5611 89.0591 72.5611C89.0416 72.5611 89.0153 72.5611 88.989 72.5611C88.9802 72.5611 88.9626 72.5611 88.9539 72.5611C88.91 72.5611 88.8574 72.5524 88.8047 72.5524C88.796 72.5524 88.7872 72.5524 88.7872 72.5524C88.717 72.5524 88.6381 72.5436 88.5504 72.5436C88.5328 72.5436 88.5153 72.5436 88.4977 72.5436C88.4188 72.5436 88.3398 72.5436 88.2521 72.5348C88.2258 72.5348 88.2083 72.5348 88.182 72.5348C88.0855 72.5348 87.9802 72.5261 87.8662 72.5261C87.8486 72.5261 87.8399 72.5261 87.8223 72.5261C87.6907 72.5261 87.5504 72.5261 87.4013 72.5173C87.3837 72.5173 87.3662 72.5173 87.3486 72.5173C87.2171 72.5173 87.0767 72.5173 86.9364 72.5173C86.9013 72.5173 86.8662 72.5173 86.8223 72.5173C86.6732 72.5173 86.5153 72.5173 86.3574 72.5173C86.3311 72.5173 86.3048 72.5173 86.2785 72.5173C86.0855 72.5173 85.8925 72.5173 85.682 72.5261C85.6557 72.5261 85.6206 72.5261 85.5943 72.5261C85.4188 72.5261 85.2346 72.5348 85.0504 72.5348C84.9978 72.5348 84.9364 72.5348 84.8838 72.5436C84.6908 72.5524 84.489 72.5524 84.2873 72.5611C84.2522 72.5611 84.2259 72.5611 84.1908 72.5611C83.954 72.5699 83.6996 72.5787 83.4452 72.5962C83.4013 72.5962 83.3487 72.605 83.3049 72.605C83.0943 72.6138 82.8838 72.6225 82.6733 72.6401C82.6031 72.6401 82.5242 72.6489 82.454 72.6489C82.2172 72.6664 81.9803 72.6752 81.7435 72.6927C81.7084 72.6927 81.6645 72.7015 81.6294 72.7015C81.3488 72.719 81.0593 72.7454 80.7698 72.7629C80.6996 72.7717 80.6295 72.7717 80.5593 72.7804C80.3312 72.798 80.0944 72.8155 79.8576 72.8418C79.7698 72.8506 79.6821 72.8594 79.5944 72.8682C79.3225 72.8945 79.0418 72.9208 78.7611 72.9471C78.726 72.9471 78.6909 72.9559 78.647 72.9559C78.3313 72.991 78.0067 73.0261 77.6822 73.0611C77.5944 73.0699 77.5067 73.0787 77.4278 73.0875C77.1734 73.1138 76.919 73.1489 76.6646 73.1839C76.5681 73.1927 76.4717 73.2103 76.3664 73.219C76.0506 73.2629 75.7261 73.3067 75.4103 73.3506C75.384 73.3506 75.3664 73.3594 75.3401 73.3594C74.998 73.412 74.6471 73.4646 74.2875 73.5173C74.1822 73.5348 74.0857 73.5524 73.9805 73.5699C73.7173 73.6138 73.4454 73.6576 73.1735 73.7015C73.0682 73.719 72.9542 73.7366 72.8489 73.7541C72.4805 73.8155 72.1121 73.8857 71.7437 73.9559C71.4542 74.0085 71.1823 74.0523 70.9104 74.0874C70.8314 74.0962 70.7612 74.105 70.6823 74.1137C70.4718 74.1401 70.2612 74.1576 70.0595 74.1751C69.9981 74.1751 69.9367 74.1839 69.8841 74.1927C69.656 74.2102 69.4279 74.2102 69.2086 74.2102C69.1911 74.2102 69.1735 74.2102 69.156 74.2102C69.0595 74.2102 68.9718 74.2015 68.8841 74.2015C68.7262 74.1927 68.5683 74.1927 68.4192 74.1839C68.3227 74.1752 68.2262 74.1664 68.1209 74.1488C67.9894 74.1313 67.8578 74.1225 67.7262 74.0962C67.6209 74.0787 67.5245 74.0611 67.428 74.0436C67.3139 74.0173 67.1999 73.9997 67.0859 73.9646C66.9894 73.9383 66.8929 73.912 66.7964 73.8857C66.7438 73.8681 66.6824 73.8594 66.6297 73.8418H66.6385C65.3491 73.4295 64.3842 72.7015 63.6824 71.7717C63.6824 71.7629 63.6737 71.7629 63.6737 71.7541C63.5245 71.5612 63.393 71.3594 63.2702 71.1401C63.2614 71.1226 63.2526 71.105 63.2351 71.0787C63.1298 70.8857 63.0245 70.6928 62.9368 70.491C62.9193 70.4559 62.9017 70.4121 62.8842 70.377C62.6912 69.9296 62.5333 69.4647 62.4105 68.9735C62.4018 68.9296 62.393 68.8946 62.3842 68.8507C62.3316 68.6402 62.2877 68.4209 62.2526 68.2103C62.2439 68.1753 62.2351 68.1314 62.2351 68.0963C62.2 67.8419 62.1649 67.5876 62.1386 67.3244C62.1386 67.3156 62.1386 67.3069 62.1386 67.3069C62.1211 67.0612 62.1035 66.8156 62.0947 66.57C62.0947 66.5174 62.0947 66.4648 62.0947 66.4121C62.086 66.1753 62.0947 65.9385 62.0947 65.7104C62.0947 65.6929 62.0947 65.6841 62.0947 65.6665C62.1035 65.535 62.1035 65.4034 62.1123 65.2718C62.1123 65.2543 62.1123 65.2367 62.1123 65.2192C62.1211 65.0701 62.1298 64.9209 62.1474 64.7718C62.1474 64.7367 62.1561 64.6929 62.1561 64.649C62.1737 64.4999 62.1912 64.3595 62.2088 64.2104C62.2175 64.1666 62.2175 64.1227 62.2263 64.0789C62.2439 63.9385 62.2614 63.7982 62.2877 63.6666C62.2965 63.6139 62.3053 63.5613 62.314 63.5175C62.3403 63.3859 62.3579 63.2631 62.3842 63.1315C62.393 63.0701 62.4105 63.0087 62.4193 62.9561C62.4456 62.842 62.4719 62.7192 62.4982 62.6052C62.5158 62.535 62.5333 62.4648 62.5509 62.3859C62.5772 62.2894 62.6035 62.1842 62.6298 62.0877C62.6561 61.9912 62.6824 61.9035 62.7088 61.8157C62.7351 61.7368 62.7526 61.6666 62.7702 61.5877C62.8228 61.421 62.8754 61.2631 62.9281 61.1052C64.7263 55.965 66.3754 50.4388 65.4455 46.202C65.2789 45.4476 65.0333 44.7371 64.6912 44.0705C64.6824 44.0441 64.6649 44.0266 64.6561 44.0003C64.5859 43.8687 64.5157 43.7459 64.4543 43.6231C64.4105 43.5442 64.3578 43.4652 64.314 43.3863C64.2877 43.3424 64.2614 43.2986 64.235 43.2547C64.1035 43.0354 63.9631 42.8249 63.8315 42.6319C63.5596 42.2547 63.2877 41.9302 63.0245 41.6495C62.9719 41.5968 62.9281 41.553 62.8754 41.5003C62.8403 41.4653 62.7965 41.4214 62.7614 41.3863C62.7088 41.3424 62.6649 41.2986 62.6123 41.2547C62.5772 41.2196 62.5333 41.1846 62.4982 41.1582C62.4456 41.1144 62.4017 41.0793 62.3491 41.0354C62.314 41.0091 62.2702 40.9828 62.2351 40.9477C62.1474 40.8863 62.0597 40.8249 61.9719 40.7635C61.9368 40.7372 61.893 40.7109 61.8579 40.6846C61.814 40.6582 61.7614 40.6319 61.7176 40.6056C61.6825 40.5793 61.6386 40.5618 61.6035 40.5354C61.5597 40.5091 61.5158 40.4916 61.4719 40.4653C61.4281 40.4477 61.393 40.4214 61.3491 40.4039C61.3053 40.3863 61.2614 40.3688 61.2263 40.3512C61.1825 40.3337 61.1386 40.3162 61.0948 40.2986C61.0597 40.2811 61.0246 40.2723 60.9895 40.2547C60.9106 40.2284 60.8404 40.2021 60.7614 40.1758C60.7351 40.167 60.7 40.1583 60.6737 40.1495C60.6211 40.1319 60.5772 40.1232 60.5246 40.1144C60.4895 40.1056 60.4632 40.0969 60.4281 40.0969C60.3842 40.0881 60.3316 40.0793 60.2878 40.0705C60.2614 40.0618 60.2264 40.0618 60.2 40.053C60.1474 40.0442 60.0948 40.0355 60.0509 40.0355C60.0246 40.0355 60.0071 40.0267 59.9895 40.0267C59.9193 40.0179 59.8492 40.0179 59.779 40.0091C59.7702 40.0091 59.7702 40.0091 59.7614 40.0091C59.7 40.0091 59.6386 40.0091 59.5772 40.0091C59.5246 40.0091 59.472 40.0091 59.4281 40.0179C59.4018 40.0179 59.3755 40.0179 59.3579 40.0179C59.2878 40.0179 59.2176 40.0267 59.1562 40.0355C59.1299 40.0355 59.1036 40.0442 59.0773 40.0442C59.0334 40.053 58.9983 40.053 58.9632 40.0618C58.9369 40.0705 58.9106 40.0705 58.8755 40.0793C58.8404 40.0881 58.8053 40.0881 58.779 40.0969C58.7527 40.1056 58.7352 40.1056 58.7088 40.1144C58.6738 40.1232 58.6387 40.1319 58.6123 40.1407C58.5948 40.1495 58.5773 40.1495 58.5597 40.1583C58.5159 40.167 58.4808 40.1846 58.4457 40.1933C58.4369 40.1933 58.4369 40.1933 58.4281 40.2021C58.3404 40.2284 58.2615 40.2547 58.2001 40.2811C58.2001 40.2811 58.086 40.3249 58.2001 40.2811L57.1825 38.8425C57.6124 38.7021 57.8843 38.6583 58.2878 38.5969C58.3141 38.5969 58.3404 38.5881 58.3667 38.5881C58.4983 38.5706 58.6299 38.553 58.7615 38.5443C58.8141 38.5355 58.8755 38.5355 58.9281 38.5267C59.0334 38.5179 59.1299 38.5179 59.2264 38.5179C59.2702 38.5179 59.3141 38.5092 59.3667 38.5092C59.393 38.5092 59.4106 38.5092 59.4369 38.5092C59.5158 38.5092 59.6036 38.5179 59.6825 38.5179C59.7527 38.5179 59.8316 38.5267 59.9018 38.5267C59.9807 38.5355 60.0597 38.5443 60.1474 38.553C60.2176 38.5618 60.2878 38.5706 60.3579 38.5793C60.4369 38.5881 60.5158 38.6057 60.6035 38.6232C60.6649 38.632 60.7351 38.6495 60.7965 38.6583C60.8755 38.6758 60.9632 38.6934 61.0421 38.7197C61.1035 38.7372 61.1649 38.746 61.2176 38.7635C61.3053 38.7899 61.3842 38.8162 61.4719 38.8425C61.5246 38.86 61.5772 38.8776 61.6298 38.8951C61.7176 38.9302 61.8053 38.9653 61.893 38.9916C61.9368 39.0092 61.9807 39.0267 62.0246 39.0442C62.1211 39.0881 62.2175 39.132 62.314 39.1758C62.3403 39.1934 62.3754 39.2021 62.4017 39.2197C62.5246 39.2811 62.6386 39.3425 62.7526 39.4039C62.7526 39.4039 62.7614 39.4039 62.7614 39.4127C64.4631 40.3688 65.6912 41.9038 66.349 43.167C66.3578 43.1845 66.3666 43.2108 66.3841 43.2284C66.5069 43.4652 66.6122 43.6933 66.6911 43.9038C66.6999 43.9301 66.7087 43.9477 66.7175 43.974C66.7525 44.0792 66.7876 44.1757 66.8227 44.2722C67.4894 46.4652 68.463 51.0966 65.2964 59.5789C65.2175 59.7895 65.1385 60.0088 65.0684 60.2193C65.0508 60.2631 65.042 60.307 65.0245 60.3509C64.9631 60.5263 64.9105 60.693 64.8578 60.8684C64.8403 60.921 64.8315 60.9649 64.814 61.0175C64.7614 61.1842 64.7175 61.3508 64.6736 61.5175C64.6561 61.5701 64.6473 61.614 64.6385 61.6666C64.5947 61.8333 64.5508 61.9999 64.5157 62.1666C64.507 62.2192 64.4894 62.2719 64.4807 62.3245C64.4456 62.4912 64.4105 62.6491 64.3754 62.8157C64.3666 62.8683 64.3579 62.9298 64.3491 62.9824C64.3228 63.1403 64.2877 63.2982 64.2614 63.4561C64.2526 63.5175 64.2438 63.5789 64.235 63.6403C64.2087 63.7894 64.1912 63.9473 64.1736 64.0964C64.1649 64.1578 64.1649 64.2192 64.1561 64.2894C64.1386 64.4385 64.121 64.5788 64.1122 64.728C64.1035 64.8771 64.0947 65.0262 64.0859 65.1666C64.0684 65.456 64.0684 65.7367 64.0684 66.0086C64.0684 66.0174 64.0684 66.0262 64.0684 66.035C64.0684 66.2981 64.0859 66.5525 64.1035 66.8069C64.1035 66.8332 64.1035 66.8595 64.1122 66.8858C64.1561 67.4121 64.235 67.9121 64.3491 68.3946C64.3579 68.4209 64.3579 68.4384 64.3666 68.4647C64.4894 68.9472 64.6473 69.3945 64.8491 69.8068C64.8578 69.8156 64.8578 69.8331 64.8666 69.8419C65.0771 70.2629 65.3227 70.6401 65.6122 70.9735C66.6999 72.2103 68.3929 72.8243 70.8314 72.4471C70.9454 72.4296 71.0595 72.412 71.1735 72.3857C71.3665 72.3506 71.5682 72.3068 71.77 72.2629C72.0507 72.1927 72.3402 72.1313 72.6296 72.0699C72.7173 72.0524 72.8138 72.0348 72.9015 72.0085C73.0945 71.9647 73.2963 71.9296 73.4893 71.8857C73.5945 71.8682 73.6998 71.8419 73.805 71.8243C73.998 71.7892 74.191 71.7541 74.384 71.7191C74.4805 71.7015 74.577 71.684 74.6734 71.6664C74.8313 71.6752 75.0682 71.6401 75.2962 71.605ZM94.7345 62.5701C94.7345 62.5701 90.9187 65.1315 86.3574 66.0964C81.8049 67.0613 74.6208 68.2016 74.6208 68.2016C74.6208 68.2016 69.6999 69.4735 65.9192 70.8594C65.7701 70.7015 65.6298 70.5349 65.507 70.3594C64.6385 69.1051 64.2701 67.2279 64.4017 65.0701C66.6561 64.4385 68.9806 63.728 70.9893 63.114C73.0945 62.4648 74.9191 61.9035 75.919 61.6754C78.3313 61.114 86.0855 59.7544 86.1732 59.7368C86.2258 59.7281 91.1907 58.5877 94.945 56.5176C94.945 58.307 94.8836 60.307 94.7345 62.5701Z" fill="#8449F9"/>
</svg>
