<svg width="212" height="42" viewBox="0 0 212 42" fill="none" xmlns="http://www.w3.org/2000/svg">
<path d="M0.233539 7.01997C1.90021 6.7533 3.18354 6.48664 4.08354 6.21997C4.98354 5.9533 5.83354 5.68664 6.63354 5.41997C6.73354 6.18664 6.80021 6.96997 6.83354 7.76997C6.86687 8.53664 6.91687 9.3033 6.98354 10.07C7.08354 9.86997 7.23354 9.61997 7.43354 9.31997C7.66687 9.01997 7.95021 8.7033 8.28354 8.36997C8.61687 8.0033 9.01687 7.66997 9.48354 7.36997C9.95021 7.03664 10.4835 6.7533 11.0835 6.51997C11.6835 6.2533 12.2335 6.1033 12.7335 6.06997C13.2669 6.03664 13.6669 6.01997 13.9335 6.01997C14.1669 6.01997 14.5002 6.0533 14.9335 6.11997C15.4002 6.1533 15.8835 6.2533 16.3835 6.41997C16.9169 6.58664 17.4669 6.83664 18.0335 7.16997C18.6335 7.5033 19.1835 7.9533 19.6835 8.51997C20.5502 9.48664 21.0669 10.52 21.2335 11.62C21.4002 12.6866 21.5002 13.8366 21.5335 15.07V28.02C21.5335 28.0866 21.5335 28.32 21.5335 28.72C21.5669 29.0866 21.6669 29.42 21.8335 29.72C22.0669 30.0866 22.4835 30.3366 23.0835 30.47C23.7169 30.6033 24.4669 30.6866 25.3335 30.72V31.62C24.4002 31.5533 23.4835 31.4866 22.5835 31.42C21.6835 31.3533 20.7669 31.32 19.8335 31.32C18.9335 31.32 18.0169 31.3533 17.0835 31.42C16.1835 31.4866 15.2835 31.5533 14.3835 31.62V30.72C14.5835 30.72 14.8502 30.72 15.1835 30.72C15.5169 30.6866 15.8502 30.6366 16.1835 30.57C16.5169 30.5033 16.8335 30.42 17.1335 30.32C17.4335 30.1866 17.6669 30.0366 17.8335 29.87C18.1335 29.5033 18.2669 28.8866 18.2335 28.02V15.17C18.2335 14.6033 18.2169 14.02 18.1835 13.42C18.1835 12.82 18.1002 12.2366 17.9335 11.67C17.8002 11.1033 17.5669 10.5866 17.2335 10.12C16.9335 9.61997 16.4835 9.2033 15.8835 8.86997C15.6169 8.73664 15.2669 8.6033 14.8335 8.46997C14.4002 8.33664 13.8502 8.26997 13.1835 8.26997C12.5502 8.26997 11.9835 8.3533 11.4835 8.51997C10.9835 8.6533 10.5335 8.83664 10.1335 9.06997C9.76687 9.26997 9.45021 9.48664 9.18354 9.71997C8.91687 9.9533 8.71687 10.1533 8.58354 10.32C7.95021 11.0866 7.56687 11.9033 7.43354 12.77C7.30021 13.6033 7.23354 14.4866 7.23354 15.42V28.02C7.23354 28.0866 7.23354 28.32 7.23354 28.72C7.26687 29.0866 7.36687 29.42 7.53354 29.72C7.73354 30.0866 8.15021 30.3366 8.78354 30.47C9.41687 30.6033 10.1669 30.6866 11.0335 30.72L10.9835 31.62C10.1169 31.5533 9.21687 31.4866 8.28354 31.42C7.38354 31.3533 6.48354 31.32 5.58354 31.32C4.65021 31.32 3.73354 31.3533 2.83354 31.42C1.93354 31.4866 1.03354 31.5533 0.133539 31.62V30.72C1.00021 30.6866 1.73354 30.6033 2.33354 30.47C2.93354 30.3366 3.35021 30.12 3.58354 29.82C3.75021 29.5533 3.85021 29.27 3.88354 28.97C3.91687 28.6366 3.93354 28.32 3.93354 28.02V10.82C3.90021 10.0533 3.86687 9.43664 3.83354 8.96997C3.80021 8.46997 3.58354 8.13664 3.18354 7.96997C2.95021 7.9033 2.56687 7.8533 2.03354 7.81997C1.50021 7.78664 0.900206 7.7533 0.233539 7.71997V7.01997ZM30.1273 9.21997C29.994 8.78664 29.8606 8.46997 29.7273 8.26997C29.3606 7.73664 28.844 7.43664 28.1773 7.36997C27.544 7.26997 26.894 7.2033 26.2273 7.16997V6.31997C27.0606 6.38664 27.8773 6.4533 28.6773 6.51997C29.4773 6.5533 30.294 6.56997 31.1273 6.56997C31.9606 6.56997 32.7773 6.5533 33.5773 6.51997C34.4106 6.4533 35.2273 6.38664 36.0273 6.31997V7.16997C35.5273 7.2033 35.0606 7.2533 34.6273 7.31997C34.2273 7.38664 33.944 7.46997 33.7773 7.56997C33.7106 7.63664 33.6106 7.73664 33.4773 7.86997C33.344 7.96997 33.2773 8.13664 33.2773 8.36997C33.2773 8.53664 33.3106 8.71997 33.3773 8.91997C33.444 9.08664 33.5273 9.33664 33.6273 9.66997L39.6273 26.02L45.7273 9.71997C45.794 9.5533 45.8606 9.3533 45.9273 9.11997C46.0273 8.8533 46.0773 8.63664 46.0773 8.46997C46.0773 8.2033 46.0106 8.01997 45.8773 7.91997C45.7773 7.78664 45.694 7.68664 45.6273 7.61997C45.4273 7.48664 45.0773 7.38664 44.5773 7.31997C44.1106 7.2533 43.5773 7.2033 42.9773 7.16997L43.0273 6.31997C43.6273 6.38664 44.2273 6.43664 44.8273 6.46997C45.4606 6.5033 46.094 6.51997 46.7273 6.51997C47.5273 6.51997 48.3106 6.5033 49.0773 6.46997C49.8773 6.43664 50.6773 6.38664 51.4773 6.31997V7.16997C50.9106 7.23664 50.294 7.33664 49.6273 7.46997C48.994 7.6033 48.494 7.88664 48.1273 8.31997C47.9606 8.48664 47.8273 8.66997 47.7273 8.86997C47.6606 9.06997 47.6106 9.21997 47.5773 9.31997L37.6773 35.87C37.4106 36.5366 37.1606 37.1033 36.9273 37.57C36.7273 38.0366 36.5106 38.4366 36.2773 38.77C36.044 39.1366 35.794 39.4366 35.5273 39.67C35.294 39.9366 35.0273 40.1866 34.7273 40.42C33.7606 41.1533 32.8106 41.5533 31.8773 41.62C30.944 41.72 30.2773 41.7533 29.8773 41.72V39.17C30.0106 39.17 30.2273 39.1533 30.5273 39.12C30.8606 39.12 31.2273 39.07 31.6273 38.97C32.0273 38.9033 32.444 38.7866 32.8773 38.62C33.3106 38.4533 33.7273 38.2033 34.1273 37.87C34.694 37.4033 35.144 36.87 35.4773 36.27C35.8106 35.7033 36.1273 35.0866 36.4273 34.42L37.9273 30.57L30.1273 9.21997ZM72.9656 23.27C72.8989 23.67 72.7989 24.22 72.6656 24.92C72.5656 25.5866 72.2989 26.37 71.8656 27.27C71.7656 27.5033 71.5989 27.82 71.3656 28.22C71.1322 28.5866 70.8322 28.9866 70.4656 29.42C70.0989 29.82 69.6489 30.22 69.1156 30.62C68.5822 31.02 67.9489 31.3366 67.2156 31.57C66.9489 31.67 66.5489 31.77 66.0156 31.87C65.5156 31.97 64.8989 32.02 64.1656 32.02C62.2656 32.02 60.7822 31.77 59.7156 31.27C58.6822 30.77 57.8656 30.2366 57.2656 29.67C56.7656 29.2366 56.2989 28.72 55.8656 28.12C55.4322 27.4866 55.0489 26.7533 54.7156 25.92C54.3822 25.0533 54.1156 24.07 53.9156 22.97C53.7156 21.87 53.6156 20.6033 53.6156 19.17C53.6156 18.17 53.6656 17.17 53.7656 16.17C53.8989 15.1366 54.1156 14.1533 54.4156 13.22C54.7156 12.2533 55.1156 11.3366 55.6156 10.47C56.1489 9.6033 56.7989 8.81997 57.5656 8.11997C57.7989 7.88664 58.0822 7.6533 58.4156 7.41997C58.7822 7.1533 59.2156 6.9033 59.7156 6.66997C60.2156 6.43664 60.7822 6.2533 61.4156 6.11997C62.0489 5.9533 62.7822 5.86997 63.6156 5.86997C64.7822 5.86997 65.7989 6.03664 66.6656 6.36997C67.5656 6.66997 68.3156 7.0533 68.9156 7.51997C69.5489 7.9533 70.0656 8.43664 70.4656 8.96997C70.8656 9.46997 71.1656 9.9033 71.3656 10.27C71.7989 11.07 72.1656 12.0866 72.4656 13.32C72.7656 14.52 72.8989 16.1033 72.8656 18.07L56.9156 18.12C56.9156 18.82 56.9322 19.6033 56.9656 20.47C57.0322 21.3033 57.1322 22.1533 57.2656 23.02C57.3989 23.8866 57.5822 24.7366 57.8156 25.57C58.0822 26.37 58.4322 27.07 58.8656 27.67C59.2989 28.3033 59.7656 28.8033 60.2656 29.17C60.7656 29.5033 61.2489 29.77 61.7156 29.97C62.1822 30.1366 62.6156 30.2533 63.0156 30.32C63.4489 30.3533 63.8156 30.37 64.1156 30.37C64.7489 30.37 65.4322 30.27 66.1656 30.07C66.8989 29.87 67.5822 29.5033 68.2156 28.97C68.8489 28.4366 69.3989 27.72 69.8656 26.82C70.3656 25.8866 70.6989 24.6866 70.8656 23.22L72.9656 23.27ZM69.6156 16.17C69.5489 14.07 69.2656 12.42 68.7656 11.22C68.2656 9.98664 67.6322 9.0533 66.8656 8.41997C65.9656 7.61997 64.8489 7.21997 63.5156 7.21997C62.3489 7.21997 61.3656 7.53664 60.5656 8.16997C59.7989 8.76997 59.1656 9.51997 58.6656 10.42C58.1656 11.32 57.7989 12.2866 57.5656 13.32C57.3322 14.3533 57.1656 15.3033 57.0656 16.17H69.6156ZM87.7914 20.02H101.091V17.42H87.7914V20.02ZM114.123 10.02H114.773C117.473 10.02 117.773 10.37 117.773 13.57V36.92C117.773 39.62 117.523 39.82 114.173 39.97V41.37C117.323 41.17 118.923 41.07 120.923 41.07C122.923 41.07 124.523 41.17 127.673 41.37V39.97C124.323 39.82 124.073 39.62 124.073 36.92V29.72C125.773 31.42 127.173 32.02 129.473 32.02C135.323 32.02 139.523 26.87 139.523 19.72C139.523 12.67 135.023 7.31997 129.123 7.31997C126.523 7.31997 124.923 8.21997 123.173 10.77C122.973 9.41997 122.773 8.56997 122.323 7.31997C118.923 8.16997 117.173 8.46997 114.123 8.66997V10.02ZM128.473 8.71997C131.673 8.71997 133.073 12.22 133.073 20.17C133.073 27.42 131.723 30.62 128.673 30.62C125.423 30.62 124.023 27.32 124.023 19.67C124.023 12.12 125.423 8.71997 128.473 8.71997ZM165.262 29.97C164.612 30.17 164.312 30.22 163.912 30.22C162.512 30.22 162.162 29.52 162.162 26.82V18.17C162.162 14.12 161.812 12.17 160.862 10.77C159.462 8.56997 156.612 7.31997 153.062 7.31997C148.062 7.31997 144.112 10.07 144.112 13.52C144.112 15.07 144.912 15.87 146.462 15.87C148.112 15.87 149.062 14.92 149.062 13.22C149.062 12.87 149.062 12.67 148.862 11.72C148.812 11.47 148.812 11.22 148.812 11.02C148.812 9.86997 150.362 8.86997 152.212 8.86997C154.812 8.86997 155.862 10.22 155.862 13.42V16.77C146.912 18.02 142.512 20.92 142.512 25.52C142.512 29.42 145.412 32.02 149.712 32.02C152.912 32.02 155.012 30.67 156.612 27.47C157.012 30.62 158.512 31.97 161.612 31.97C162.812 31.97 163.712 31.82 165.262 31.42V29.97ZM155.862 22.97C155.862 24.82 155.762 25.72 155.562 26.57C155.112 28.27 153.862 29.32 152.212 29.32C150.062 29.32 148.812 27.57 148.812 24.67C148.812 20.87 150.662 19.22 155.862 18.22V22.97ZM182.314 27.97C180.964 29.12 180.064 29.52 178.914 29.52C177.064 29.52 176.414 28.27 176.464 24.57L176.564 9.81997H181.614V7.86997H176.564L176.714 0.46997H174.764C173.664 5.26997 170.964 7.91997 167.314 7.96997V9.81997H170.264L169.914 24.32V24.87C169.914 27.07 170.214 28.42 171.014 29.47C172.114 31.07 174.064 31.92 176.464 31.92C178.564 31.92 179.914 31.47 182.314 29.97V27.97ZM193.31 6.91997C190.36 7.76997 186.51 8.46997 183.46 8.66997V9.96997C186.81 9.96997 187.01 10.17 187.01 13.52V23.67C187.01 26.07 187.36 27.52 188.31 28.87C189.71 30.82 191.96 31.87 194.76 31.87C198.16 31.87 200.31 30.62 202.01 27.77C202.06 29.37 202.31 30.87 202.61 32.27C204.86 31.47 207.81 30.87 211.06 30.57V29.17L210.46 29.12C207.61 29.02 207.36 28.82 207.36 26.72V6.91997C204.31 7.76997 200.56 8.41997 197.51 8.66997V9.96997C200.86 9.96997 201.06 10.17 201.06 13.52V23.97C201.06 25.37 200.91 26.42 200.56 27.12C199.91 28.52 198.56 29.32 196.96 29.32C195.71 29.32 194.71 28.87 194.06 27.92C193.51 27.12 193.31 26.17 193.31 24.12V6.91997Z" fill="white"/>
</svg>
