<svg width="23" height="23" viewBox="0 0 23 23" fill="none" xmlns="http://www.w3.org/2000/svg">
<path fill-rule="evenodd" clip-rule="evenodd" d="M21.0197 0.351472L20.9285 0.269096C20.4572 -0.115327 19.7619 -0.087868 19.3226 0.351472L18.1919 1.48214L20.6668 3.95701L21.7975 2.82635L21.8798 2.73521C22.2643 2.26388 22.2368 1.56863 21.7975 1.12929L21.0197 0.351472ZM17.7556 1.91701L18.4629 2.62399C18.4629 2.62399 10.417 10.6231 10.0228 11.0654C9.84995 11.2594 9.7998 11.5135 9.79798 11.7376C9.79528 12.0701 10.0656 12.3313 10.3981 12.3337C10.6326 12.3353 10.8974 12.2915 11.0835 12.1261C11.4958 11.7596 19.5235 3.68465 19.5235 3.68465L20.2305 4.39188L11.1157 13.5081C10.7378 13.886 9.94376 14.1126 8.73355 14.188L8.46785 14.2018H8.42556C8.18032 14.1914 7.98382 14.0061 7.95139 13.7712L7.94714 13.6811L7.96098 13.4154C8.03094 12.2916 8.23133 11.5267 8.56214 11.1206L8.64079 11.0333L17.7556 1.91701ZM14.757 3.15224L13.256 4.65224H2C1.72386 4.65224 1.5 4.8761 1.5 5.15224V20.1522C1.5 20.4284 1.72386 20.6522 2 20.6522H17C17.2761 20.6522 17.5 20.4284 17.5 20.1522V8.89424L19 7.39524V20.1522C19 21.2568 18.1046 22.1522 17 22.1522H2C0.89543 22.1522 0 21.2568 0 20.1522V5.15224C0 4.04767 0.89543 3.15224 2 3.15224H14.757Z" fill="#007AFF"/>
</svg>
