<svg width="26" height="6" viewBox="0 0 26 6" fill="none" xmlns="http://www.w3.org/2000/svg">
<path fill-rule="evenodd" clip-rule="evenodd" d="M3.25 0C4.76878 0 6 1.23122 6 2.75C6 4.26878 4.76878 5.5 3.25 5.5C1.73122 5.5 0.5 4.26878 0.5 2.75C0.5 1.23122 1.73122 0 3.25 0ZM13 0C14.5188 0 15.75 1.23122 15.75 2.75C15.75 4.26878 14.5188 5.5 13 5.5C11.4812 5.5 10.25 4.26878 10.25 2.75C10.25 1.23122 11.4812 0 13 0ZM22.75 0C24.2688 0 25.5 1.23122 25.5 2.75C25.5 4.26878 24.2688 5.5 22.75 5.5C21.2312 5.5 20 4.26878 20 2.75C20 1.23122 21.2312 0 22.75 0Z" fill="white"/>
</svg>
