<svg width="22" height="22" viewBox="0 0 22 22" fill="none" xmlns="http://www.w3.org/2000/svg">
<path fill-rule="evenodd" clip-rule="evenodd" d="M3.24426 0.740234H3.16426C2.79786 0.740234 2.48266 0.740234 2.20426 0.805834C1.77328 0.908818 1.37922 1.12911 1.06575 1.4423C0.752275 1.75549 0.53163 2.14935 0.428258 2.58023C0.364258 2.85863 0.364258 3.17223 0.364258 3.54023V7.54023C0.364258 7.90663 0.364258 8.22183 0.429858 8.50023C0.532842 8.93122 0.753132 9.32527 1.06632 9.63875C1.37951 9.95222 1.77337 10.1729 2.20426 10.2762C2.48266 10.3402 2.79626 10.3402 3.16426 10.3402H7.16426C7.53066 10.3402 7.84586 10.3402 8.12426 10.2746C8.55524 10.1717 8.9493 9.95136 9.26277 9.63817C9.57624 9.32498 9.79689 8.93112 9.90026 8.50023C9.96426 8.22183 9.96426 7.90823 9.96426 7.54023V3.54023C9.96426 3.17383 9.96426 2.85863 9.89866 2.58023C9.79567 2.14925 9.57538 1.75519 9.2622 1.44172C8.94901 1.12825 8.55515 0.907607 8.12426 0.804234C7.84586 0.740234 7.53226 0.740234 7.16426 0.740234H3.24426ZM2.57706 2.36263C2.64586 2.34663 2.75306 2.34023 3.24426 2.34023H7.08426C7.57706 2.34023 7.68266 2.34503 7.75146 2.36263C7.89519 2.397 8.02658 2.47051 8.13108 2.57501C8.23558 2.67951 8.30909 2.81091 8.34346 2.95463C8.35946 3.02183 8.36426 3.12743 8.36426 3.62023V7.46023C8.36426 7.95303 8.35946 8.05863 8.34186 8.12743C8.30749 8.27116 8.23398 8.40256 8.12948 8.50706C8.02498 8.61155 7.89359 8.68506 7.74986 8.71943C7.68426 8.73383 7.57866 8.74023 7.08426 8.74023H3.24426C2.75146 8.74023 2.64586 8.73543 2.57706 8.71783C2.43333 8.68346 2.30193 8.60995 2.19743 8.50546C2.09294 8.40096 2.01943 8.26956 1.98506 8.12583C1.97066 8.06023 1.96426 7.95463 1.96426 7.46023V3.62023C1.96426 3.12743 1.96906 3.02183 1.98666 2.95303C2.02103 2.80931 2.09454 2.67791 2.19903 2.57341C2.30353 2.46891 2.43493 2.3954 2.57866 2.36103L2.57706 2.36263ZM14.4443 0.740234H14.3643C13.9979 0.740234 13.6827 0.740234 13.4043 0.805834C12.9733 0.908818 12.5792 1.12911 12.2657 1.4423C11.9523 1.75549 11.7316 2.14935 11.6283 2.58023C11.5643 2.85863 11.5643 3.17223 11.5643 3.54023V7.54023C11.5643 7.90663 11.5643 8.22183 11.6299 8.50023C11.7328 8.93122 11.9531 9.32527 12.2663 9.63875C12.5795 9.95222 12.9734 10.1729 13.4043 10.2762C13.6827 10.3402 13.9963 10.3402 14.3643 10.3402H18.3643C18.7307 10.3402 19.0459 10.3402 19.3243 10.2746C19.7552 10.1717 20.1493 9.95136 20.4628 9.63817C20.7762 9.32498 20.9969 8.93112 21.1003 8.50023C21.1643 8.22183 21.1643 7.90823 21.1643 7.54023V3.54023C21.1643 3.17383 21.1643 2.85863 21.0987 2.58023C20.9957 2.14925 20.7754 1.75519 20.4622 1.44172C20.149 1.12825 19.7552 0.907607 19.3243 0.804234C19.0459 0.740234 18.7323 0.740234 18.3643 0.740234H14.4443ZM13.7771 2.36263C13.8459 2.34663 13.9531 2.34023 14.4443 2.34023H18.2843C18.7771 2.34023 18.8827 2.34503 18.9515 2.36263C19.0952 2.397 19.2266 2.47051 19.3311 2.57501C19.4356 2.67951 19.5091 2.81091 19.5435 2.95463C19.5595 3.02183 19.5643 3.12743 19.5643 3.62023V7.46023C19.5643 7.95303 19.5579 8.05863 19.5419 8.12743C19.5075 8.27116 19.434 8.40256 19.3295 8.50706C19.225 8.61155 19.0936 8.68506 18.9499 8.71943C18.8827 8.73543 18.7771 8.74023 18.2843 8.74023H14.4443C13.9515 8.74023 13.8459 8.73543 13.7771 8.71783C13.6333 8.68346 13.5019 8.60995 13.3974 8.50546C13.2929 8.40096 13.2194 8.26956 13.1851 8.12583C13.1707 8.06023 13.1643 7.95463 13.1643 7.46023V3.62023C13.1643 3.12743 13.1691 3.02183 13.1867 2.95303C13.221 2.80931 13.2945 2.67791 13.399 2.57341C13.5035 2.46891 13.6349 2.3954 13.7787 2.36103L13.7771 2.36263ZM3.16426 11.9402H7.16426C7.53066 11.9402 7.84586 11.9402 8.12426 12.0058C8.55524 12.1088 8.9493 12.3291 9.26277 12.6423C9.57624 12.9555 9.79689 13.3493 9.90026 13.7802C9.96426 14.0586 9.96426 14.3722 9.96426 14.7402V18.7402C9.96426 19.1066 9.96426 19.4218 9.89866 19.7002C9.79567 20.1312 9.57538 20.5253 9.2622 20.8387C8.94901 21.1522 8.55515 21.3729 8.12426 21.4762C7.84586 21.5402 7.53226 21.5402 7.16426 21.5402H3.16426C2.79786 21.5402 2.48266 21.5402 2.20426 21.4746C1.77328 21.3717 1.37922 21.1514 1.06575 20.8382C0.752275 20.525 0.53163 20.1311 0.428258 19.7002C0.364258 19.4218 0.364258 19.1082 0.364258 18.7402V14.7402C0.364258 14.3738 0.364258 14.0586 0.429858 13.7802C0.532842 13.3493 0.753132 12.9552 1.06632 12.6417C1.37951 12.3283 1.77337 12.1076 2.20426 12.0042C2.48266 11.9402 2.79626 11.9402 3.16426 11.9402ZM3.24426 13.5402C2.75146 13.5402 2.64586 13.545 2.57706 13.5626C2.43333 13.597 2.30193 13.6705 2.19743 13.775C2.09294 13.8795 2.01943 14.0109 1.98506 14.1546C1.97066 14.2202 1.96426 14.3258 1.96426 14.8202V18.6602C1.96426 19.153 1.96906 19.2586 1.98666 19.3274C2.02103 19.4712 2.09454 19.6026 2.19903 19.7071C2.30353 19.8116 2.43493 19.8851 2.57866 19.9194C2.64586 19.9354 2.75146 19.9402 3.24426 19.9402H7.08426C7.57706 19.9402 7.68266 19.9338 7.75146 19.9178C7.89519 19.8835 8.02658 19.81 8.13108 19.7055C8.23558 19.601 8.30909 19.4696 8.34346 19.3258C8.35946 19.2586 8.36426 19.153 8.36426 18.6602V14.8202C8.36426 14.3274 8.35946 14.2218 8.34186 14.153C8.30749 14.0093 8.23398 13.8779 8.12948 13.7734C8.02498 13.6689 7.89359 13.5954 7.74986 13.561C7.68426 13.5466 7.57866 13.5402 7.08426 13.5402H3.24426ZM14.4443 11.9402H14.3643C13.9979 11.9402 13.6827 11.9402 13.4043 12.0058C12.9733 12.1088 12.5792 12.3291 12.2657 12.6423C11.9523 12.9555 11.7316 13.3493 11.6283 13.7802C11.5643 14.0586 11.5643 14.3722 11.5643 14.7402V18.7402C11.5643 19.1066 11.5643 19.4218 11.6299 19.7002C11.7328 20.1312 11.9531 20.5253 12.2663 20.8387C12.5795 21.1522 12.9734 21.3729 13.4043 21.4762C13.6827 21.5418 13.9979 21.5418 14.3643 21.5418H18.3643C18.7307 21.5418 19.0459 21.5418 19.3243 21.4762C19.7549 21.373 20.1487 21.1526 20.4618 20.8394C20.775 20.5262 20.9954 20.1325 21.0987 19.7018C21.1643 19.4234 21.1643 19.1082 21.1643 18.7418V14.7402C21.1643 14.3738 21.1643 14.0586 21.0987 13.7802C20.9957 13.3493 20.7754 12.9552 20.4622 12.6417C20.149 12.3283 19.7552 12.1076 19.3243 12.0042C19.0459 11.9402 18.7323 11.9402 18.3643 11.9402H14.4443ZM13.7771 13.5626C13.8459 13.5466 13.9531 13.5402 14.4443 13.5402H18.2843C18.7771 13.5402 18.8827 13.545 18.9515 13.5626C19.0952 13.597 19.2266 13.6705 19.3311 13.775C19.4356 13.8795 19.5091 14.0109 19.5435 14.1546C19.5595 14.2218 19.5643 14.3274 19.5643 14.8202V18.6602C19.5643 19.153 19.5579 19.2586 19.5419 19.3274C19.5075 19.4712 19.434 19.6026 19.3295 19.7071C19.225 19.8116 19.0936 19.8851 18.9499 19.9194C18.8827 19.9354 18.7771 19.9402 18.2843 19.9402H14.4443C13.9515 19.9402 13.8459 19.9338 13.7771 19.9178C13.6333 19.8835 13.5019 19.81 13.3974 19.7055C13.2929 19.601 13.2194 19.4696 13.1851 19.3258C13.1707 19.2602 13.1643 19.1546 13.1643 18.6602V14.8202C13.1643 14.3274 13.1691 14.2218 13.1867 14.153C13.221 14.0093 13.2945 13.8779 13.399 13.7734C13.5035 13.6689 13.6349 13.5954 13.7787 13.561L13.7771 13.5626Z" fill="black"/>
</svg>
