<svg width="31" height="24" viewBox="0 0 31 24" fill="none" xmlns="http://www.w3.org/2000/svg">
<path d="M27.957 6L15.957 13.5L3.95703 6V3L15.957 10.5L27.957 3V6ZM27.957 0H3.95703C2.29203 0 0.957031 1.335 0.957031 3V21C0.957031 21.7956 1.2731 22.5587 1.83571 23.1213C2.39832 23.6839 3.16138 24 3.95703 24H27.957C28.7527 24 29.5157 23.6839 30.0784 23.1213C30.641 22.5587 30.957 21.7956 30.957 21V3C30.957 2.20435 30.641 1.44129 30.0784 0.87868C29.5157 0.31607 28.7527 0 27.957 0V0Z" fill="black"/>
</svg>
