<svg width="25" height="25" viewBox="0 0 25 25" fill="none" xmlns="http://www.w3.org/2000/svg">
<path d="M22.8627 24.6885C10.0662 24.7065 0.353702 14.8785 0.367202 2.19297C0.367202 1.36348 1.0392 0.688477 1.8672 0.688477H5.8272C6.56969 0.688477 7.20119 1.23448 7.31069 1.96948C7.57185 3.73206 8.08457 5.44804 8.83319 7.06497L8.98769 7.39797C9.09147 7.62205 9.1138 7.87533 9.05082 8.11412C8.98784 8.3529 8.8435 8.56222 8.64269 8.70597C7.41569 9.58197 6.9477 11.3445 7.90319 12.7185C9.10617 14.4485 10.6076 15.9504 12.3372 17.154C13.7127 18.108 15.4752 17.64 16.3497 16.4145C16.4933 16.2131 16.7028 16.0682 16.9419 16.0049C17.181 15.9416 17.4348 15.9639 17.6592 16.068L17.9907 16.221C19.6077 16.971 21.3237 17.484 23.0862 17.745C23.8212 17.8545 24.3672 18.486 24.3672 19.23V23.1885C24.3672 23.3856 24.3283 23.5807 24.2529 23.7628C24.1774 23.9449 24.0668 24.1103 23.9273 24.2496C23.7879 24.389 23.6223 24.4994 23.4402 24.5747C23.258 24.65 23.0628 24.6886 22.8657 24.6885H22.8627Z" fill="black"/>
</svg>
