<svg width="39" height="24" viewBox="0 0 39 24" fill="none" xmlns="http://www.w3.org/2000/svg">
<path fill-rule="evenodd" clip-rule="evenodd" d="M0.533203 4.8C0.533203 3.52696 1.03892 2.30606 1.93909 1.40589C2.83927 0.505713 4.06016 3.32429e-08 5.3332 3.32429e-08H23.3332C24.4974 -0.000136915 25.622 0.422863 26.4976 1.19023C27.3731 1.95759 27.9399 3.01701 28.0924 4.1712L35.5564 0.8544C35.9217 0.691612 36.322 0.622713 36.7207 0.653965C37.1195 0.685218 37.5041 0.815631 37.8396 1.03335C38.1751 1.25107 38.4509 1.54919 38.6419 1.90062C38.8329 2.25204 38.933 2.64563 38.9332 3.0456V20.9544C38.9329 21.3541 38.8327 21.7473 38.6418 22.0984C38.451 22.4496 38.1755 22.7475 37.8403 22.9652C37.5051 23.1828 37.1208 23.3133 36.7224 23.3448C36.324 23.3763 35.924 23.3079 35.5588 23.1456L28.0924 19.8288C27.9399 20.983 27.3731 22.0424 26.4976 22.8098C25.622 23.5771 24.4974 24.0001 23.3332 24H5.3332C4.06016 24 2.83927 23.4943 1.93909 22.5941C1.03892 21.6939 0.533203 20.473 0.533203 19.2V4.8Z" fill="black"/>
</svg>
