<svg width="27" height="26" viewBox="0 0 27 26" fill="none" xmlns="http://www.w3.org/2000/svg">
<path d="M13.7148 7.6C15.147 7.6 16.5205 8.16893 17.5332 9.18162C18.5459 10.1943 19.1148 11.5678 19.1148 13C19.1148 14.4322 18.5459 15.8057 17.5332 16.8184C16.5205 17.8311 15.147 18.4 13.7148 18.4C12.2827 18.4 10.9092 17.8311 9.89647 16.8184C8.88377 15.8057 8.31484 14.4322 8.31484 13C8.31484 11.5678 8.88377 10.1943 9.89647 9.18162C10.9092 8.16893 12.2827 7.6 13.7148 7.6V7.6ZM13.7148 7.6H24.4338H13.7148ZM9.51484 24.244L17.1012 17.2L9.51484 24.244ZM2.91484 7.7632L9.43984 16.3312L2.91484 7.7632ZM13.7148 25C20.3424 25 25.7148 19.6276 25.7148 13C25.7148 6.3724 20.3424 1 13.7148 1C7.08724 1 1.71484 6.3724 1.71484 13C1.71484 19.6276 7.08724 25 13.7148 25Z" stroke="black" stroke-width="2" stroke-linecap="round" stroke-linejoin="round"/>
</svg>
