<svg width="23" height="24" viewBox="0 0 23 24" fill="none" xmlns="http://www.w3.org/2000/svg">
<path d="M10.3503 22.3231C10.3503 22.9583 10.8651 23.4731 11.5003 23.4731C12.1354 23.4731 12.6503 22.9583 12.6503 22.3231H10.3503ZM12.6503 1.9502C12.6503 1.31507 12.1354 0.800195 11.5003 0.800195C10.8651 0.800195 10.3503 1.31507 10.3503 1.9502H12.6503ZM12.6503 22.3231V1.9502H10.3503V22.3231H12.6503Z" fill="white"/>
<path d="M21.6865 13.2867C22.3216 13.2867 22.8365 12.7718 22.8365 12.1367C22.8365 11.5016 22.3216 10.9867 21.6865 10.9867V13.2867ZM1.31354 10.9867C0.67841 10.9867 0.163537 11.5016 0.163537 12.1367C0.163537 12.7718 0.67841 13.2867 1.31354 13.2867L1.31354 10.9867ZM21.6865 10.9867L1.31354 10.9867L1.31354 13.2867L21.6865 13.2867V10.9867Z" fill="white"/>
</svg>
