<svg width="25" height="25" viewBox="0 0 25 25" fill="none" xmlns="http://www.w3.org/2000/svg">
<path d="M21.4452 23.4063H4.0129C3.74539 23.4079 3.48676 23.3135 3.28693 23.1413C3.08711 22.9691 2.96024 22.7314 2.93082 22.474L2.07599 10.0545C2.07148 9.91571 2.09638 9.77753 2.14917 9.64845C2.20195 9.51938 2.28149 9.40213 2.38288 9.30397C2.48427 9.20581 2.60538 9.1288 2.7387 9.0777C2.87202 9.02659 3.01475 9.00249 3.15807 9.00685H22.4785C22.7655 9.00685 23.0408 9.11722 23.2437 9.31369C23.4466 9.51016 23.5606 9.77662 23.5606 10.0545L22.5272 22.4844C22.4953 22.74 22.3674 22.9752 22.1678 23.1452C21.9682 23.3152 21.711 23.4082 21.4452 23.4063V23.4063Z" stroke="#DCDCDC" stroke-width="2.2" stroke-linecap="round" stroke-linejoin="round"/>
<path d="M7.40508 12.4065V6.64458C7.40508 5.25535 7.97511 3.92302 8.98975 2.94069C10.0044 1.95836 11.3805 1.40649 12.8155 1.40649C14.2504 1.40649 15.6265 1.95836 16.6412 2.94069C17.6558 3.92302 18.2258 5.25535 18.2258 6.64458V12.4065" stroke="#DCDCDC" stroke-width="2.2" stroke-linecap="round" stroke-linejoin="round"/>
</svg>
