<svg width="70" height="70" viewBox="0 0 70 70" fill="none" xmlns="http://www.w3.org/2000/svg">
<path d="M2.33443 0C1.71559 0 1.1221 0.245833 0.684516 0.683417C0.246931 1.121 0.00109863 1.71449 0.00109863 2.33333C0.00109863 2.95217 0.246931 3.54566 0.684516 3.98325C1.1221 4.42083 1.71559 4.66667 2.33443 4.66667H7.51443L9.38576 12.166L16.3764 49.4293C16.4765 49.964 16.7603 50.4469 17.1787 50.7946C17.5971 51.1423 18.1238 51.3328 18.6678 51.3333H23.3344C20.8591 51.3333 18.4851 52.3167 16.7348 54.067C14.9844 55.8173 14.0011 58.1913 14.0011 60.6667C14.0011 63.142 14.9844 65.516 16.7348 67.2663C18.4851 69.0167 20.8591 70 23.3344 70C25.8098 70 28.1838 69.0167 29.9341 67.2663C31.6844 65.516 32.6678 63.142 32.6678 60.6667C32.6678 58.1913 31.6844 55.8173 29.9341 54.067C28.1838 52.3167 25.8098 51.3333 23.3344 51.3333H56.0011C53.5257 51.3333 51.1518 52.3167 49.4014 54.067C47.6511 55.8173 46.6678 58.1913 46.6678 60.6667C46.6678 63.142 47.6511 65.516 49.4014 67.2663C51.1518 69.0167 53.5257 70 56.0011 70C58.4765 70 60.8504 69.0167 62.6008 67.2663C64.3511 65.516 65.3344 63.142 65.3344 60.6667C65.3344 58.1913 64.3511 55.8173 62.6008 54.067C60.8504 52.3167 58.4765 51.3333 56.0011 51.3333H60.6678C61.2117 51.3328 61.7385 51.1423 62.1568 50.7946C62.5752 50.4469 62.859 49.964 62.9591 49.4293L69.9591 12.096C70.0221 11.7592 70.0102 11.4127 69.9243 11.0811C69.8383 10.7494 69.6803 10.4408 69.4616 10.1771C69.2429 9.91337 68.9688 9.70106 68.6587 9.55524C68.3487 9.40941 68.0104 9.33365 67.6678 9.33333H13.4878L11.5978 1.76867C11.4718 1.26366 11.1806 0.815261 10.7705 0.494782C10.3604 0.174303 9.85491 0.000143787 9.33443 0H2.33443ZM28.0011 60.6667C28.0011 61.9043 27.5094 63.0913 26.6343 63.9665C25.7591 64.8417 24.5721 65.3333 23.3344 65.3333C22.0968 65.3333 20.9098 64.8417 20.0346 63.9665C19.1594 63.0913 18.6678 61.9043 18.6678 60.6667C18.6678 59.429 19.1594 58.242 20.0346 57.3668C20.9098 56.4917 22.0968 56 23.3344 56C24.5721 56 25.7591 56.4917 26.6343 57.3668C27.5094 58.242 28.0011 59.429 28.0011 60.6667ZM60.6678 60.6667C60.6678 61.9043 60.1761 63.0913 59.3009 63.9665C58.4258 64.8417 57.2388 65.3333 56.0011 65.3333C54.7634 65.3333 53.5764 64.8417 52.7013 63.9665C51.8261 63.0913 51.3344 61.9043 51.3344 60.6667C51.3344 59.429 51.8261 58.242 52.7013 57.3668C53.5764 56.4917 54.7634 56 56.0011 56C57.2388 56 58.4258 56.4917 59.3009 57.3668C60.1761 58.242 60.6678 59.429 60.6678 60.6667ZM52.9864 24.9853L38.9864 38.9853C38.7697 39.2026 38.5122 39.375 38.2287 39.4927C37.9452 39.6103 37.6413 39.6708 37.3344 39.6708C37.0275 39.6708 36.7236 39.6103 36.4401 39.4927C36.1567 39.375 35.8992 39.2026 35.6824 38.9853L28.6824 31.9853C28.4655 31.7684 28.2934 31.5108 28.176 31.2274C28.0586 30.9439 27.9981 30.6401 27.9981 30.3333C27.9981 30.0265 28.0586 29.7227 28.176 29.4393C28.2934 29.1558 28.4655 28.8983 28.6824 28.6813C28.8994 28.4644 29.1569 28.2923 29.4404 28.1749C29.7238 28.0575 30.0276 27.9971 30.3344 27.9971C30.6412 27.9971 30.945 28.0575 31.2285 28.1749C31.5119 28.2923 31.7695 28.4644 31.9864 28.6813L37.3344 34.034L49.6824 21.6813C49.8994 21.4644 50.1569 21.2923 50.4404 21.1749C50.7238 21.0575 51.0276 20.9971 51.3344 20.9971C51.6412 20.9971 51.945 21.0575 52.2285 21.1749C52.5119 21.2923 52.7695 21.4644 52.9864 21.6813C53.2034 21.8983 53.3755 22.1558 53.4929 22.4393C53.6103 22.7227 53.6707 23.0265 53.6707 23.3333C53.6707 23.6401 53.6103 23.9439 53.4929 24.2274C53.3755 24.5108 53.2034 24.7684 52.9864 24.9853Z" fill="#8649FC"/>
</svg>
