<svg width="70" height="70" viewBox="0 0 70 70" fill="none" xmlns="http://www.w3.org/2000/svg">
<path d="M2.80107 0.5C2.19107 0.5 1.60606 0.742321 1.17472 1.17365C0.743389 1.60499 0.501068 2.19 0.501068 2.8C0.501068 3.41 0.743389 3.99501 1.17472 4.42635C1.60606 4.85768 2.19107 5.1 2.80107 5.1H7.90707L9.75167 12.4922L16.6425 49.2232C16.7411 49.7503 17.0208 50.2263 17.4333 50.569C17.8457 50.9117 18.3649 51.0995 18.9011 51.1H23.5011C21.0611 51.1 18.721 52.0693 16.9957 53.7946C15.2704 55.52 14.3011 57.86 14.3011 60.3C14.3011 62.74 15.2704 65.08 16.9957 66.8054C18.721 68.5307 21.0611 69.5 23.5011 69.5C25.9411 69.5 28.2811 68.5307 30.0065 66.8054C31.7318 65.08 32.7011 62.74 32.7011 60.3C32.7011 57.86 31.7318 55.52 30.0065 53.7946C28.2811 52.0693 25.9411 51.1 23.5011 51.1H55.7011C53.2611 51.1 50.921 52.0693 49.1957 53.7946C47.4704 55.52 46.5011 57.86 46.5011 60.3C46.5011 62.74 47.4704 65.08 49.1957 66.8054C50.921 68.5307 53.2611 69.5 55.7011 69.5C58.1411 69.5 60.4811 68.5307 62.2065 66.8054C63.9318 65.08 64.9011 62.74 64.9011 60.3C64.9011 57.86 63.9318 55.52 62.2065 53.7946C60.4811 52.0693 58.1411 51.1 55.7011 51.1H60.3011C60.8373 51.0995 61.3565 50.9117 61.7689 50.569C62.1813 50.2263 62.461 49.7503 62.5597 49.2232L69.4597 12.4232C69.5218 12.0913 69.5101 11.7497 69.4253 11.4228C69.3406 11.0959 69.1849 10.7916 68.9693 10.5317C68.7537 10.2718 68.4835 10.0625 68.1779 9.91873C67.8723 9.77499 67.5388 9.70031 67.2011 9.7H13.7951L11.9321 2.2434C11.8079 1.74561 11.5209 1.30361 11.1166 0.987714C10.7124 0.671813 10.2141 0.500142 9.70107 0.5H2.80107ZM28.1011 60.3C28.1011 61.52 27.6164 62.69 26.7538 63.5527C25.8911 64.4154 24.7211 64.9 23.5011 64.9C22.2811 64.9 21.111 64.4154 20.2484 63.5527C19.3857 62.69 18.9011 61.52 18.9011 60.3C18.9011 59.08 19.3857 57.91 20.2484 57.0473C21.111 56.1846 22.2811 55.7 23.5011 55.7C24.7211 55.7 25.8911 56.1846 26.7538 57.0473C27.6164 57.91 28.1011 59.08 28.1011 60.3ZM60.3011 60.3C60.3011 61.52 59.8164 62.69 58.9538 63.5527C58.0911 64.4154 56.9211 64.9 55.7011 64.9C54.4811 64.9 53.3111 64.4154 52.4484 63.5527C51.5857 62.69 51.1011 61.52 51.1011 60.3C51.1011 59.08 51.5857 57.91 52.4484 57.0473C53.3111 56.1846 54.4811 55.7 55.7011 55.7C56.9211 55.7 58.0911 56.1846 58.9538 57.0473C59.8164 57.91 60.3011 59.08 60.3011 60.3ZM34.3295 21.8716L39.6011 27.1478L44.8727 21.8716C45.3045 21.4397 45.8903 21.1971 46.5011 21.1971C47.1118 21.1971 47.6976 21.4397 48.1295 21.8716C48.5613 22.3035 48.804 22.8892 48.804 23.5C48.804 24.1108 48.5613 24.6965 48.1295 25.1284L42.8533 30.4L48.1295 35.6716C48.5613 36.1035 48.804 36.6892 48.804 37.3C48.804 37.9108 48.5613 38.4965 48.1295 38.9284C47.6976 39.3603 47.1118 39.6029 46.5011 39.6029C45.8903 39.6029 45.3045 39.3603 44.8727 38.9284L39.6011 33.6522L34.3295 38.9284C34.1156 39.1422 33.8618 39.3119 33.5824 39.4276C33.303 39.5433 33.0035 39.6029 32.7011 39.6029C32.3986 39.6029 32.0992 39.5433 31.8198 39.4276C31.5404 39.3119 31.2865 39.1422 31.0727 38.9284C30.8588 38.7146 30.6892 38.4607 30.5735 38.1813C30.4577 37.9019 30.3982 37.6024 30.3982 37.3C30.3982 36.9976 30.4577 36.6981 30.5735 36.4187C30.6892 36.1393 30.8588 35.8854 31.0727 35.6716L36.3489 30.4L31.0727 25.1284C30.8588 24.9146 30.6892 24.6607 30.5735 24.3813C30.4577 24.1019 30.3982 23.8024 30.3982 23.5C30.3982 23.1976 30.4577 22.8981 30.5735 22.6187C30.6892 22.3393 30.8588 22.0854 31.0727 21.8716C31.2865 21.6578 31.5404 21.4881 31.8198 21.3724C32.0992 21.2567 32.3986 21.1971 32.7011 21.1971C33.0035 21.1971 33.303 21.2567 33.5824 21.3724C33.8618 21.4881 34.1156 21.6578 34.3295 21.8716Z" fill="#8649FC"/>
</svg>
