<svg width="21" height="20" viewBox="0 0 21 20" fill="none" xmlns="http://www.w3.org/2000/svg">
<path d="M15.1906 14.6211C14.7966 15.5539 14.207 16.3913 13.4617 17.0767C12.7163 17.7621 11.8326 18.2796 10.8701 18.5942C9.90767 18.9089 8.88891 19.0133 7.88263 18.9005C6.87635 18.7878 5.90599 18.4604 5.03707 17.9405L1.10078 18.9832L2.21302 14.7775C1.53849 13.3013 1.39316 11.6379 1.80149 10.0671C2.20981 8.49629 3.14686 7.11414 4.45488 6.15332" stroke="#1F2243" stroke-width="2" stroke-linecap="round" stroke-linejoin="round"/>
<path d="M19.1008 15.6631L17.9885 11.4574C18.6884 9.91272 18.8118 8.16842 18.3364 6.54057C17.861 4.91273 16.8182 3.50902 15.3971 2.58373C13.9759 1.65845 12.2703 1.2728 10.5893 1.49669C8.9083 1.72057 7.3631 2.53917 6.23365 3.80417C5.10419 5.06916 4.4652 6.69687 4.43243 8.3924C4.39967 10.0879 4.9753 11.7391 6.05505 13.0468C7.13479 14.3545 8.64722 15.2321 10.3183 15.5208C11.9894 15.8095 13.7086 15.49 15.1645 14.6203L19.1008 15.6631Z" stroke="#1F2243" stroke-width="2" stroke-linecap="round" stroke-linejoin="round"/>
<path d="M9.45989 6.29137C9.58274 6.02676 9.77119 5.79793 10.0073 5.62662C10.2538 5.44645 10.5326 5.31521 10.8285 5.23996C11.1453 5.15202 11.4728 5.10814 11.8017 5.1096C12.2257 5.10473 12.647 5.17838 13.0443 5.32684C13.3882 5.46246 13.6886 5.68928 13.9132 5.98289C14.1442 6.2984 14.2621 6.68262 14.2477 7.07341C14.2571 7.33431 14.2034 7.59361 14.0913 7.82938C13.9982 8.01953 13.8665 8.18822 13.7047 8.32468C13.5495 8.45148 13.387 8.56899 13.218 8.6766C13.0182 8.79825 12.8574 8.90252 12.7358 8.99376C12.6222 9.07067 12.5284 9.1734 12.4621 9.29354L12.4056 9.40216C12.4056 9.57595 12.3795 9.76277 12.3795 9.83663C12.3795 9.91049 12.0059 9.94525 11.5497 9.94525C11.268 9.96724 10.9847 9.94229 10.7112 9.87139C10.7112 9.83664 10.7112 9.57595 10.6764 9.29354L10.7242 9.08066C10.7708 8.87203 10.8628 8.67622 10.9936 8.50715C11.1397 8.32858 11.3198 8.18089 11.5236 8.07268C11.7251 7.962 11.9157 7.83256 12.0928 7.68603C12.2029 7.58225 12.2752 7.44457 12.298 7.29497C12.3208 7.14537 12.2929 6.99244 12.2188 6.86053C12.1584 6.77373 12.0759 6.7047 11.9798 6.66066C11.8798 6.61705 11.7718 6.59487 11.6627 6.59551C11.5716 6.59392 11.4813 6.61169 11.3976 6.64764C11.3201 6.68273 11.2505 6.73315 11.193 6.79587C11.1355 6.8586 11.0913 6.93231 11.0631 7.01258L11.037 7.09513C11.037 7.1994 10.6286 7.2863 10.1681 7.2863C10.0674 7.29706 9.96552 7.28747 9.86859 7.25811C9.77165 7.22874 9.6816 7.1802 9.60379 7.11536C9.52598 7.05052 9.462 6.9707 9.41563 6.88065C9.36927 6.7906 9.34147 6.69216 9.33389 6.59116L9.45989 6.29137ZM10.7937 10.6361C11.0297 10.4634 11.3187 10.3789 11.6105 10.3971C11.9036 10.3797 12.1937 10.4641 12.4317 10.6361C12.5275 10.7138 12.6041 10.8127 12.6554 10.9251C12.7066 11.0374 12.7312 11.16 12.7271 11.2834C12.7312 11.4062 12.7066 11.5282 12.6553 11.6398C12.604 11.7514 12.5275 11.8496 12.4317 11.9264C12.1881 12.0853 11.9035 12.1699 11.6127 12.1699C11.3219 12.1699 11.0373 12.0853 10.7937 11.9264C10.6971 11.8502 10.62 11.7523 10.5686 11.6405C10.5173 11.5287 10.4932 11.4063 10.4983 11.2834C10.4959 11.1628 10.5213 11.0432 10.5725 10.934C10.6238 10.8247 10.6994 10.7287 10.7937 10.6534V10.6361Z" fill="#1F2243"/>
</svg>
