<svg width="24" height="26" viewBox="0 0 24 26" fill="none" xmlns="http://www.w3.org/2000/svg">
<path d="M20.8794 8.5826L14.697 3.23808C13.9478 2.59349 12.9922 2.23901 12.0038 2.23901C11.0155 2.23901 10.0599 2.59349 9.31063 3.23808L3.12827 8.5826C2.6794 8.9713 2.31937 9.45196 2.07257 9.99202C1.82577 10.5321 1.69798 11.1189 1.69788 11.7127V21.1329C1.69788 21.5413 1.77842 21.9457 1.93489 22.3229C2.09137 22.7002 2.32069 23.0428 2.60976 23.3313C2.89883 23.6199 3.24196 23.8485 3.61951 24.0043C3.99705 24.16 4.40161 24.2398 4.81002 24.239H8.95753V17.4282C8.95753 16.6155 9.28038 15.8361 9.85504 15.2615C10.4297 14.6868 11.2091 14.364 12.0218 14.364C12.8345 14.364 13.6139 14.6868 14.1885 15.2615C14.7632 15.8361 15.0861 16.6155 15.0861 17.4282V24.239H19.5986C20.3256 24.239 21.0228 23.9502 21.5369 23.4362C22.0509 22.9221 22.3397 22.2249 22.3397 21.498V11.7127C22.3359 11.1166 22.2035 10.5283 21.9514 9.98812C21.6994 9.44791 21.3337 8.9685 20.8794 8.5826Z" stroke="#DCDCDC" stroke-width="2.5" stroke-linecap="round" stroke-linejoin="round"/>
</svg>
