<svg width="29" height="26" viewBox="0 0 29 26" fill="none" xmlns="http://www.w3.org/2000/svg">
<path d="M25.2279 3.7189C22.7704 1.54401 19.6002 1.83276 17.284 4.14895L14.4579 6.96893L11.6379 4.14895C9.32171 1.83276 6.1454 1.54401 3.69404 3.7189C3.06884 4.27405 2.56353 4.95095 2.20905 5.70819C1.85457 6.46543 1.65837 7.28706 1.63249 8.12276C1.60661 8.95846 1.75159 9.79065 2.05853 10.5684C2.36547 11.3461 2.82792 12.053 3.41757 12.6458L14.3964 24.239L14.6115 24.0178L14.6791 24.0854L25.5043 12.6458C26.094 12.053 26.5564 11.3461 26.8634 10.5684C27.1703 9.79065 27.3153 8.95846 27.2894 8.12276C27.2635 7.28706 27.0673 6.46543 26.7129 5.70819C26.3584 4.95095 25.8531 4.27405 25.2279 3.7189Z" stroke="#DCDCDC" stroke-width="2.5" stroke-linecap="round" stroke-linejoin="round"/>
</svg>
