<svg width="12" height="11" viewBox="0 0 12 11" fill="none" xmlns="http://www.w3.org/2000/svg">
<path d="M0.891479 2.19474C0.891479 1.61914 1.12014 1.0671 1.52715 0.660089C1.93417 0.253073 2.4862 0.0244141 3.06181 0.0244141H8.26886C8.55388 0.0244141 8.8361 0.0805513 9.09941 0.189621C9.36273 0.29869 9.60199 0.458555 9.80352 0.660089C10.0051 0.861623 10.1649 1.10088 10.274 1.36419C10.3831 1.62751 10.4392 1.90973 10.4392 2.19474V3.5334C10.1517 3.47988 9.85622 3.48579 9.57106 3.55077V2.19474C9.57106 1.84938 9.43387 1.51816 9.18966 1.27395C8.94545 1.02974 8.61423 0.892546 8.26886 0.892546H3.06181C2.71644 0.892546 2.38523 1.02974 2.14102 1.27395C1.89681 1.51816 1.75961 1.84938 1.75961 2.19474V7.4018C1.75961 7.59018 1.79955 7.76989 1.8716 7.93136L4.69737 4.79046C4.81948 4.65476 4.96876 4.54626 5.13552 4.47198C5.30228 4.39771 5.48279 4.35933 5.66534 4.35933C5.84789 4.35933 6.0284 4.39771 6.19516 4.47198C6.36191 4.54626 6.51119 4.65476 6.6333 4.79046L7.21929 5.44069L6.60466 6.05533L5.98828 5.37124C5.94758 5.32605 5.89784 5.28993 5.84228 5.2652C5.78672 5.24047 5.72658 5.22769 5.66577 5.22769C5.60496 5.22769 5.54482 5.24047 5.48926 5.2652C5.4337 5.28993 5.38396 5.32605 5.34326 5.37124L2.47061 8.56162C2.64858 8.65278 2.84912 8.70313 3.06181 8.70313H4.60274L4.40741 9.48445C4.40021 9.51319 4.39384 9.54214 4.38831 9.57126H3.06181C2.4862 9.57126 1.93417 9.3426 1.52715 8.93559C1.12014 8.52857 0.891479 7.97654 0.891479 7.40093V2.19474Z" fill="white"/>
<path d="M7.40071 1.76367C7.2297 1.76367 7.06037 1.79735 6.90238 1.8628C6.74439 1.92824 6.60084 2.02416 6.47992 2.14508C6.359 2.266 6.26308 2.40955 6.19763 2.56754C6.13219 2.72553 6.09851 2.89486 6.09851 3.06587C6.09851 3.23688 6.13219 3.40621 6.19763 3.5642C6.26308 3.72219 6.359 3.86574 6.47992 3.98666C6.60084 4.10758 6.74439 4.2035 6.90238 4.26894C7.06037 4.33438 7.2297 4.36807 7.40071 4.36807C7.74607 4.36807 8.07729 4.23087 8.3215 3.98666C8.56571 3.74245 8.70291 3.41123 8.70291 3.06587C8.70291 2.72051 8.56571 2.38929 8.3215 2.14508C8.07729 1.90087 7.74607 1.76367 7.40071 1.76367V1.76367ZM6.96664 3.06587C6.96664 2.95075 7.01237 2.84034 7.09378 2.75894C7.17518 2.67754 7.28559 2.6318 7.40071 2.6318C7.51583 2.6318 7.62624 2.67754 7.70764 2.75894C7.78904 2.84034 7.83477 2.95075 7.83477 3.06587C7.83477 3.18099 7.78904 3.2914 7.70764 3.3728C7.62624 3.4542 7.51583 3.49994 7.40071 3.49994C7.28559 3.49994 7.17518 3.4542 7.09378 3.3728C7.01237 3.2914 6.96664 3.18099 6.96664 3.06587Z" fill="white"/>
<path d="M9.15339 4.73498C9.39221 4.50814 9.71019 4.38356 10.0395 4.3878C10.3689 4.39204 10.6836 4.52475 10.9165 4.75766C11.1494 4.99056 11.2821 5.30523 11.2863 5.63458C11.2906 5.96393 11.166 6.28191 10.9391 6.52073L7.67844 9.7823C7.48831 9.97256 7.25005 10.1076 6.98914 10.173L5.97777 10.4256C5.87709 10.4509 5.77158 10.4497 5.67151 10.4221C5.57145 10.3944 5.48024 10.3414 5.4068 10.268C5.33335 10.1946 5.28017 10.1035 5.25243 10.0035C5.2247 9.90344 5.22335 9.79793 5.24854 9.69722L5.50203 8.68585C5.56714 8.42541 5.7017 8.18667 5.89269 7.99655L9.15339 4.73585V4.73498ZM9.76716 5.34875L6.50646 8.61032C6.42733 8.6893 6.37121 8.78834 6.34412 8.89681L6.20001 9.47498L6.77818 9.33087C6.88663 9.30374 6.98566 9.24762 7.06467 9.16853L10.3254 5.90783C10.3948 5.83289 10.4325 5.73397 10.4306 5.63184C10.4286 5.5297 10.3872 5.43229 10.3149 5.36006C10.2427 5.28782 10.1453 5.24638 10.0432 5.24444C9.94101 5.24249 9.8421 5.28019 9.76716 5.34962V5.34875Z" fill="white"/>
</svg>
