<svg width="23" height="26" viewBox="0 0 23 26" fill="none" xmlns="http://www.w3.org/2000/svg">
<path d="M1.83725 24.2396C2.37494 22.0833 3.60661 20.1634 5.34258 18.7758C7.07855 17.3882 9.22255 16.6098 11.4444 16.5604C13.6663 16.511 15.8427 17.1933 17.6387 18.5024C19.4346 19.8115 20.7504 21.6747 21.3834 23.805" stroke="#DCDCDC" stroke-width="2.5" stroke-linecap="round" stroke-linejoin="round"/>
<path d="M12.098 12.3147H11.1175C9.88903 12.3147 8.71082 11.8267 7.84213 10.958C6.97343 10.0893 6.48541 8.91108 6.48541 7.68256V7.25858C6.48541 5.92745 7.0142 4.65081 7.95545 3.70956C8.8967 2.76831 10.1733 2.23953 11.5044 2.23953C12.1916 2.23883 12.8721 2.37367 13.5071 2.63631C14.1421 2.89895 14.719 3.28423 15.2049 3.77011C15.6908 4.256 16.0761 4.83294 16.3387 5.46791C16.6013 6.10288 16.7362 6.78341 16.7355 7.47055V7.68256C16.7355 8.91108 16.2474 10.0893 15.3787 10.958C14.5101 11.8267 13.3319 12.3147 12.1033 12.3147H12.098Z" stroke="#DCDCDC" stroke-width="2.5" stroke-linecap="round" stroke-linejoin="round"/>
</svg>
