<svg width="21" height="21" viewBox="0 0 21 21" fill="none" xmlns="http://www.w3.org/2000/svg">
<path d="M19.2891 10.8506V3.35059C19.2891 2.95276 19.131 2.57123 18.8497 2.28993C18.5684 2.00862 18.1869 1.85059 17.7891 1.85059H2.78906C2.39124 1.85059 2.00971 2.00862 1.7284 2.28993C1.4471 2.57123 1.28906 2.95276 1.28906 3.35059V18.3506C1.28906 18.7484 1.4471 19.1299 1.7284 19.4112C2.00971 19.6925 2.39124 19.8506 2.78906 19.8506H10.2891" stroke="#1F2243" stroke-width="2" stroke-linecap="round" stroke-linejoin="round"/>
<path d="M14.2891 17.8506C15.9459 17.8506 17.2891 16.5074 17.2891 14.8506C17.2891 13.1937 15.9459 11.8506 14.2891 11.8506C12.6322 11.8506 11.2891 13.1937 11.2891 14.8506C11.2891 16.5074 12.6322 17.8506 14.2891 17.8506Z" stroke="#1F2243" stroke-width="2"/>
<path d="M16.7891 16.8506L19.2891 18.8506M5.28906 6.85059H15.2891M5.28906 10.8506H9.28906" stroke="#1F2243" stroke-width="2" stroke-linecap="round" stroke-linejoin="round"/>
</svg>
