<svg width="128" height="35" viewBox="0 0 128 35" fill="none" xmlns="http://www.w3.org/2000/svg">
<path d="M1.02 13.33C2.02 13.17 2.79 13.01 3.33 12.85C3.87 12.69 4.38 12.53 4.86 12.37C4.92 12.83 4.96 13.3 4.98 13.78C5 14.24 5.03 14.7 5.07 15.16C5.13 15.04 5.22 14.89 5.34 14.71C5.48 14.53 5.65 14.34 5.85 14.14C6.05 13.92 6.29 13.72 6.57 13.54C6.85 13.34 7.17 13.17 7.53 13.03C7.89 12.87 8.22 12.78 8.52 12.76C8.84 12.74 9.08 12.73 9.24 12.73C9.38 12.73 9.58 12.75 9.84 12.79C10.12 12.81 10.41 12.87 10.71 12.97C11.03 13.07 11.36 13.22 11.7 13.42C12.06 13.62 12.39 13.89 12.69 14.23C13.21 14.81 13.52 15.43 13.62 16.09C13.72 16.73 13.78 17.42 13.8 18.16V25.93C13.8 25.97 13.8 26.11 13.8 26.35C13.82 26.57 13.88 26.77 13.98 26.95C14.12 27.17 14.37 27.32 14.73 27.4C15.11 27.48 15.56 27.53 16.08 27.55V28.09C15.52 28.05 14.97 28.01 14.43 27.97C13.89 27.93 13.34 27.91 12.78 27.91C12.24 27.91 11.69 27.93 11.13 27.97C10.59 28.01 10.05 28.05 9.51 28.09V27.55C9.63 27.55 9.79 27.55 9.99 27.55C10.19 27.53 10.39 27.5 10.59 27.46C10.79 27.42 10.98 27.37 11.16 27.31C11.34 27.23 11.48 27.14 11.58 27.04C11.76 26.82 11.84 26.45 11.82 25.93V18.22C11.82 17.88 11.81 17.53 11.79 17.17C11.79 16.81 11.74 16.46 11.64 16.12C11.56 15.78 11.42 15.47 11.22 15.19C11.04 14.89 10.77 14.64 10.41 14.44C10.25 14.36 10.04 14.28 9.78 14.2C9.52 14.12 9.19 14.08 8.79 14.08C8.41 14.08 8.07 14.13 7.77 14.23C7.47 14.31 7.2 14.42 6.96 14.56C6.74 14.68 6.55 14.81 6.39 14.95C6.23 15.09 6.11 15.21 6.03 15.31C5.65 15.77 5.42 16.26 5.34 16.78C5.26 17.28 5.22 17.81 5.22 18.37V25.93C5.22 25.97 5.22 26.11 5.22 26.35C5.24 26.57 5.3 26.77 5.4 26.95C5.52 27.17 5.77 27.32 6.15 27.4C6.53 27.48 6.98 27.53 7.5 27.55L7.47 28.09C6.95 28.05 6.41 28.01 5.85 27.97C5.31 27.93 4.77 27.91 4.23 27.91C3.67 27.91 3.12 27.93 2.58 27.97C2.04 28.01 1.5 28.05 0.96 28.09V27.55C1.48 27.53 1.92 27.48 2.28 27.4C2.64 27.32 2.89 27.19 3.03 27.01C3.13 26.85 3.19 26.68 3.21 26.5C3.23 26.3 3.24 26.11 3.24 25.93V15.61C3.22 15.15 3.2 14.78 3.18 14.5C3.16 14.2 3.03 14 2.79 13.9C2.65 13.86 2.42 13.83 2.1 13.81C1.78 13.79 1.42 13.77 1.02 13.75V13.33ZM18.9563 14.65C18.8763 14.39 18.7963 14.2 18.7163 14.08C18.4963 13.76 18.1863 13.58 17.7863 13.54C17.4063 13.48 17.0163 13.44 16.6163 13.42V12.91C17.1163 12.95 17.6063 12.99 18.0863 13.03C18.5663 13.05 19.0563 13.06 19.5563 13.06C20.0563 13.06 20.5463 13.05 21.0263 13.03C21.5263 12.99 22.0163 12.95 22.4963 12.91V13.42C22.1963 13.44 21.9163 13.47 21.6563 13.51C21.4163 13.55 21.2463 13.6 21.1463 13.66C21.1063 13.7 21.0463 13.76 20.9663 13.84C20.8863 13.9 20.8463 14 20.8463 14.14C20.8463 14.24 20.8663 14.35 20.9063 14.47C20.9463 14.57 20.9963 14.72 21.0563 14.92L24.6563 24.73L28.3163 14.95C28.3563 14.85 28.3963 14.73 28.4363 14.59C28.4963 14.43 28.5263 14.3 28.5263 14.2C28.5263 14.04 28.4863 13.93 28.4063 13.87C28.3463 13.79 28.2963 13.73 28.2563 13.69C28.1363 13.61 27.9263 13.55 27.6263 13.51C27.3463 13.47 27.0263 13.44 26.6663 13.42L26.6963 12.91C27.0563 12.95 27.4163 12.98 27.7763 13C28.1563 13.02 28.5363 13.03 28.9163 13.03C29.3963 13.03 29.8663 13.02 30.3263 13C30.8063 12.98 31.2863 12.95 31.7663 12.91V13.42C31.4263 13.46 31.0563 13.52 30.6563 13.6C30.2763 13.68 29.9763 13.85 29.7563 14.11C29.6563 14.21 29.5763 14.32 29.5163 14.44C29.4763 14.56 29.4463 14.65 29.4263 14.71L23.4863 30.64C23.3263 31.04 23.1763 31.38 23.0363 31.66C22.9163 31.94 22.7863 32.18 22.6463 32.38C22.5063 32.6 22.3563 32.78 22.1963 32.92C22.0563 33.08 21.8963 33.23 21.7163 33.37C21.1363 33.81 20.5663 34.05 20.0063 34.09C19.4463 34.15 19.0463 34.17 18.8063 34.15V32.62C18.8863 32.62 19.0163 32.61 19.1963 32.59C19.3963 32.59 19.6163 32.56 19.8563 32.5C20.0963 32.46 20.3463 32.39 20.6063 32.29C20.8663 32.19 21.1163 32.04 21.3563 31.84C21.6963 31.56 21.9663 31.24 22.1663 30.88C22.3663 30.54 22.5563 30.17 22.7363 29.77L23.6363 27.46L18.9563 14.65ZM44.6592 23.08C44.6192 23.32 44.5592 23.65 44.4792 24.07C44.4192 24.47 44.2592 24.94 43.9992 25.48C43.9392 25.62 43.8392 25.81 43.6992 26.05C43.5592 26.27 43.3792 26.51 43.1592 26.77C42.9392 27.01 42.6692 27.25 42.3492 27.49C42.0292 27.73 41.6492 27.92 41.2092 28.06C41.0492 28.12 40.8092 28.18 40.4892 28.24C40.1892 28.3 39.8192 28.33 39.3792 28.33C38.2392 28.33 37.3492 28.18 36.7092 27.88C36.0892 27.58 35.5992 27.26 35.2392 26.92C34.9392 26.66 34.6592 26.35 34.3992 25.99C34.1392 25.61 33.9092 25.17 33.7092 24.67C33.5092 24.15 33.3492 23.56 33.2292 22.9C33.1092 22.24 33.0492 21.48 33.0492 20.62C33.0492 20.02 33.0792 19.42 33.1392 18.82C33.2192 18.2 33.3492 17.61 33.5292 17.05C33.7092 16.47 33.9492 15.92 34.2492 15.4C34.5692 14.88 34.9592 14.41 35.4192 13.99C35.5592 13.85 35.7292 13.71 35.9292 13.57C36.1492 13.41 36.4092 13.26 36.7092 13.12C37.0092 12.98 37.3492 12.87 37.7292 12.79C38.1092 12.69 38.5492 12.64 39.0492 12.64C39.7492 12.64 40.3592 12.74 40.8792 12.94C41.4192 13.12 41.8692 13.35 42.2292 13.63C42.6092 13.89 42.9192 14.18 43.1592 14.5C43.3992 14.8 43.5792 15.06 43.6992 15.28C43.9592 15.76 44.1792 16.37 44.3592 17.11C44.5392 17.83 44.6192 18.78 44.5992 19.96L35.0292 19.99C35.0292 20.41 35.0392 20.88 35.0592 21.4C35.0992 21.9 35.1592 22.41 35.2392 22.93C35.3192 23.45 35.4292 23.96 35.5692 24.46C35.7292 24.94 35.9392 25.36 36.1992 25.72C36.4592 26.1 36.7392 26.4 37.0392 26.62C37.3392 26.82 37.6292 26.98 37.9092 27.1C38.1892 27.2 38.4492 27.27 38.6892 27.31C38.9492 27.33 39.1692 27.34 39.3492 27.34C39.7292 27.34 40.1392 27.28 40.5792 27.16C41.0192 27.04 41.4292 26.82 41.8092 26.5C42.1892 26.18 42.5192 25.75 42.7992 25.21C43.0992 24.65 43.2992 23.93 43.3992 23.05L44.6592 23.08ZM42.6492 18.82C42.6092 17.56 42.4392 16.57 42.1392 15.85C41.8392 15.11 41.4592 14.55 40.9992 14.17C40.4592 13.69 39.7892 13.45 38.9892 13.45C38.2892 13.45 37.6992 13.64 37.2192 14.02C36.7592 14.38 36.3792 14.83 36.0792 15.37C35.7792 15.91 35.5592 16.49 35.4192 17.11C35.2792 17.73 35.1792 18.3 35.1192 18.82H42.6492Z" fill="#1F2243"/>
<path d="M53.5547 21.13H61.5347V19.57H53.5547V21.13ZM69.3534 15.13H69.7434C71.3634 15.13 71.5434 15.34 71.5434 17.26V31.27C71.5434 32.89 71.3934 33.01 69.3834 33.1V33.94C71.2734 33.82 72.2334 33.76 73.4334 33.76C74.6334 33.76 75.5934 33.82 77.4834 33.94V33.1C75.4734 33.01 75.3234 32.89 75.3234 31.27V26.95C76.3434 27.97 77.1834 28.33 78.5634 28.33C82.0734 28.33 84.5934 25.24 84.5934 20.95C84.5934 16.72 81.8934 13.51 78.3534 13.51C76.7934 13.51 75.8334 14.05 74.7834 15.58C74.6634 14.77 74.5434 14.26 74.2734 13.51C72.2334 14.02 71.1834 14.2 69.3534 14.32V15.13ZM77.9634 14.35C79.8834 14.35 80.7234 16.45 80.7234 21.22C80.7234 25.57 79.9134 27.49 78.0834 27.49C76.1334 27.49 75.2934 25.51 75.2934 20.92C75.2934 16.39 76.1334 14.35 77.9634 14.35ZM100.037 27.1C99.6469 27.22 99.4669 27.25 99.2269 27.25C98.3869 27.25 98.1769 26.83 98.1769 25.21V20.02C98.1769 17.59 97.9669 16.42 97.3969 15.58C96.5569 14.26 94.8469 13.51 92.7169 13.51C89.7169 13.51 87.3469 15.16 87.3469 17.23C87.3469 18.16 87.8269 18.64 88.7569 18.64C89.7469 18.64 90.3169 18.07 90.3169 17.05C90.3169 16.84 90.3169 16.72 90.1969 16.15C90.1669 16 90.1669 15.85 90.1669 15.73C90.1669 15.04 91.0969 14.44 92.2069 14.44C93.7669 14.44 94.3969 15.25 94.3969 17.17V19.18C89.0269 19.93 86.3869 21.67 86.3869 24.43C86.3869 26.77 88.1269 28.33 90.7069 28.33C92.6269 28.33 93.8869 27.52 94.8469 25.6C95.0869 27.49 95.9869 28.3 97.8469 28.3C98.5669 28.3 99.1069 28.21 100.037 27.97V27.1ZM94.3969 22.9C94.3969 24.01 94.3369 24.55 94.2169 25.06C93.9469 26.08 93.1969 26.71 92.2069 26.71C90.9169 26.71 90.1669 25.66 90.1669 23.92C90.1669 21.64 91.2769 20.65 94.3969 20.05V22.9ZM110.268 25.9C109.458 26.59 108.918 26.83 108.228 26.83C107.118 26.83 106.728 26.08 106.758 23.86L106.818 15.01H109.848V13.84H106.818L106.908 9.4H105.738C105.078 12.28 103.458 13.87 101.268 13.9V15.01H103.038L102.828 23.71V24.04C102.828 25.36 103.008 26.17 103.488 26.8C104.148 27.76 105.318 28.27 106.758 28.27C108.018 28.27 108.828 28 110.268 27.1V25.9ZM116.866 13.27C115.096 13.78 112.786 14.2 110.956 14.32V15.1C112.966 15.1 113.086 15.22 113.086 17.23V23.32C113.086 24.76 113.296 25.63 113.866 26.44C114.706 27.61 116.056 28.24 117.736 28.24C119.776 28.24 121.066 27.49 122.086 25.78C122.116 26.74 122.266 27.64 122.446 28.48C123.796 28 125.566 27.64 127.516 27.46V26.62L127.156 26.59C125.446 26.53 125.296 26.41 125.296 25.15V13.27C123.466 13.78 121.216 14.17 119.386 14.32V15.1C121.396 15.1 121.516 15.22 121.516 17.23V23.5C121.516 24.34 121.426 24.97 121.216 25.39C120.826 26.23 120.016 26.71 119.056 26.71C118.306 26.71 117.706 26.44 117.316 25.87C116.986 25.39 116.866 24.82 116.866 23.59V13.27Z" fill="#8649FC"/>
</svg>
