<svg width="23" height="23" viewBox="0 0 23 23" fill="none" xmlns="http://www.w3.org/2000/svg">
<path d="M10.4589 21.7794C10.4589 22.4146 10.9738 22.9294 11.6089 22.9294C12.244 22.9294 12.7589 22.4146 12.7589 21.7794H10.4589ZM12.7589 1.40649C12.7589 0.771367 12.244 0.256494 11.6089 0.256494C10.9738 0.256494 10.4589 0.771367 10.4589 1.40649H12.7589ZM12.7589 21.7794V1.40649H10.4589V21.7794H12.7589Z" fill="white"/>
<path d="M21.7951 12.743C22.4302 12.743 22.9451 12.2281 22.9451 11.593C22.9451 10.9579 22.4302 10.443 21.7951 10.443V12.743ZM1.42218 10.443C0.787053 10.443 0.27218 10.9579 0.27218 11.593C0.27218 12.2281 0.787053 12.743 1.42218 12.743L1.42218 10.443ZM21.7951 10.443L1.42218 10.443L1.42218 12.743L21.7951 12.743V10.443Z" fill="white"/>
</svg>
