<svg width="21" height="21" viewBox="0 0 21 21" fill="none" xmlns="http://www.w3.org/2000/svg">
<path d="M19.557 11.9629V9.74288L17.4813 9.24037C17.3104 8.46944 17.0152 7.73146 16.6073 7.05538L17.6954 5.27676L16.1222 3.708L14.4397 4.73488C13.7309 4.25431 12.9422 3.90368 12.1105 3.69925L11.6735 1.86377H9.45358L9.01658 3.61177C8.10786 3.78217 7.24012 4.12484 6.46013 4.62126L4.98308 3.71664L3.40988 5.28551L4.28387 6.732C3.75846 7.52778 3.3933 8.41841 3.20886 9.354L1.557 9.756V11.9629L3.25694 12.3736C3.46087 13.2667 3.83153 14.1133 4.34943 14.8689L3.40114 16.4202L4.97434 17.9891L6.61746 16.9884C7.34019 17.4209 8.13284 17.7241 8.95977 17.8842L9.43174 19.8376H11.6517L12.1499 17.7837C12.8998 17.5918 13.6139 17.2804 14.2649 16.8616L16.1091 17.9891L17.6823 16.4202L16.533 14.5411C16.9315 13.9041 17.2265 13.2079 17.407 12.4785L19.557 11.9629ZM10.5723 13.9031C9.96729 13.9031 9.37587 13.7237 8.87282 13.3876C8.36977 13.0515 7.97768 12.5738 7.74615 12.0148C7.51463 11.4559 7.45405 10.8408 7.57208 10.2474C7.69011 9.65402 7.98146 9.10891 8.40927 8.68111C8.83708 8.2533 9.38213 7.96195 9.97552 7.84392C10.5689 7.72588 11.184 7.7865 11.7429 8.01803C12.3019 8.24956 12.7796 8.64162 13.1158 9.14467C13.4519 9.64772 13.6313 10.2391 13.6313 10.8441C13.6313 11.6554 13.309 12.4335 12.7353 13.0071C12.1617 13.5808 11.3836 13.9031 10.5723 13.9031V13.9031Z" stroke="#1F2243" stroke-width="2" stroke-linecap="round" stroke-linejoin="round"/>
</svg>
