<svg width="21" height="18" viewBox="0 0 21 18" fill="none" xmlns="http://www.w3.org/2000/svg">
<path d="M10.2841 16.1726C12.0945 16.1726 13.5621 14.705 13.5621 12.8947C13.5621 11.0843 12.0945 9.6167 10.2841 9.6167C8.47376 9.6167 7.00617 11.0843 7.00617 12.8947C7.00617 14.705 8.47376 16.1726 10.2841 16.1726Z" stroke="#1F2243" stroke-width="2.5" stroke-linecap="round" stroke-linejoin="round"/>
<path d="M3.61237 6.76765L1.97338 5.12866" stroke="#1F2243" stroke-width="2.5" stroke-linecap="round" stroke-linejoin="round"/>
<path d="M16.9559 6.76765L18.5949 5.12866" stroke="#1F2243" stroke-width="2.5" stroke-linecap="round" stroke-linejoin="round"/>
<path d="M10.2842 4.49378V2.17261" stroke="#1F2243" stroke-width="2.5" stroke-linecap="round" stroke-linejoin="round"/>
<path d="M1.65159 11.6634C2.19959 9.8274 3.3186 8.21389 4.84611 7.05722C6.37361 5.90055 8.23008 5.26096 10.1459 5.2313C12.0617 5.20165 13.937 5.78349 15.4996 6.89232C17.0622 8.00115 18.2306 9.57923 18.8352 11.3974" stroke="#1F2243" stroke-width="2.5" stroke-linecap="round" stroke-linejoin="round"/>
</svg>
