<svg width="21" height="18" viewBox="0 0 21 18" fill="none" xmlns="http://www.w3.org/2000/svg">
<path d="M15.1797 11.1562H14.3897L14.1097 10.8862C15.1236 9.71027 15.6808 8.20894 15.6797 6.65625C15.6797 4.93234 14.9949 3.27904 13.7759 2.06006C12.557 0.841069 10.9037 0.15625 9.17975 0.15625C5.75975 0.15625 2.95975 2.79625 2.70975 6.15625H4.72975C4.97975 3.90625 6.85975 2.15625 9.17975 2.15625C11.6697 2.15625 13.6797 4.16625 13.6797 6.65625C13.6797 9.14625 11.6697 11.1562 9.17975 11.1562C9.00975 11.1562 8.84975 11.1262 8.67975 11.1062V13.1263C8.84975 13.1463 9.00975 13.1562 9.17975 13.1562C10.7897 13.1562 12.2697 12.5663 13.4097 11.5863L13.6797 11.8663V12.6562L18.6797 17.6462L20.1697 16.1562L15.1797 11.1562V11.1562Z" fill="black"/>
<path d="M6.14976 7.97656L3.67976 10.4466L1.20976 7.97656L0.499756 8.68656L2.96976 11.1566L0.499756 13.6266L1.20976 14.3366L3.67976 11.8666L6.14976 14.3366L6.85976 13.6266L4.38976 11.1566L6.85976 8.68656L6.14976 7.97656Z" fill="black"/>
</svg>
