<svg width="21" height="18" viewBox="0 0 21 18" fill="none" xmlns="http://www.w3.org/2000/svg">
<path d="M15.1008 1.83594H1.90076V13.036H15.1008V1.83594Z" stroke="#1F2243" stroke-width="2" stroke-linecap="round" stroke-linejoin="round"/>
<path d="M15.1008 6.23633H17.3008C17.9904 6.23633 18.6517 6.51026 19.1393 6.99786C19.6269 7.48545 19.9009 8.14678 19.9009 8.83634V13.0364H15.1008V6.23633Z" stroke="#1F2243" stroke-width="2" stroke-linecap="round" stroke-linejoin="round"/>
<path d="M6.46477 16.1761C6.99718 16.1761 7.42879 15.7445 7.42879 15.2121C7.42879 14.6796 6.99718 14.248 6.46477 14.248C5.93237 14.248 5.50078 14.6796 5.50078 15.2121C5.50078 15.7445 5.93237 16.1761 6.46477 16.1761Z" stroke="#1F2243" stroke-width="2" stroke-linecap="round" stroke-linejoin="round"/>
<path d="M14.7367 16.1761C15.2692 16.1761 15.7007 15.7445 15.7007 15.2121C15.7007 14.6796 15.2692 14.248 14.7367 14.248C14.2043 14.248 13.7727 14.6796 13.7727 15.2121C13.7727 15.7445 14.2043 16.1761 14.7367 16.1761Z" stroke="#1F2243" stroke-width="2" stroke-linecap="round" stroke-linejoin="round"/>
<path d="M2.30075 6.32031H7.10078" stroke="#1F2243" stroke-width="2" stroke-linecap="round" stroke-linejoin="round"/>
</svg>
