<svg width="19" height="19" viewBox="0 0 19 19" fill="none" xmlns="http://www.w3.org/2000/svg">
<path d="M10.1172 1.45996C10.1172 1.19474 10.0118 0.94039 9.82429 0.752854C9.63676 0.565318 9.3824 0.459961 9.11719 0.459961C8.85197 0.459961 8.59762 0.565318 8.41008 0.752854C8.22254 0.94039 8.11719 1.19474 8.11719 1.45996V8.45996H1.11719C0.851971 8.45996 0.597617 8.56532 0.410081 8.75285C0.222544 8.94039 0.117188 9.19474 0.117188 9.45996C0.117188 9.72518 0.222544 9.97953 0.410081 10.1671C0.597617 10.3546 0.851971 10.46 1.11719 10.46H8.11719V17.46C8.11719 17.7252 8.22254 17.9795 8.41008 18.1671C8.59762 18.3546 8.85197 18.46 9.11719 18.46C9.3824 18.46 9.63676 18.3546 9.82429 18.1671C10.0118 17.9795 10.1172 17.7252 10.1172 17.46V10.46H17.1172C17.3824 10.46 17.6368 10.3546 17.8243 10.1671C18.0118 9.97953 18.1172 9.72518 18.1172 9.45996C18.1172 9.19474 18.0118 8.94039 17.8243 8.75285C17.6368 8.56532 17.3824 8.45996 17.1172 8.45996H10.1172V1.45996Z" fill="black"/>
</svg>
