<svg width="25" height="24" viewBox="0 0 25 24" fill="none" xmlns="http://www.w3.org/2000/svg">
<path d="M5.63086 0C5.82977 0 6.02054 0.0790176 6.16119 0.21967C6.30184 0.360322 6.38086 0.551088 6.38086 0.75V1.5H18.3809V0.75C18.3809 0.551088 18.4599 0.360322 18.6005 0.21967C18.7412 0.0790176 18.9319 0 19.1309 0C19.3298 0 19.5205 0.0790176 19.6612 0.21967C19.8018 0.360322 19.8809 0.551088 19.8809 0.75V1.5H21.3809C22.1765 1.5 22.9396 1.81607 23.5022 2.37868C24.0648 2.94129 24.3809 3.70435 24.3809 4.5V21C24.3809 21.7956 24.0648 22.5587 23.5022 23.1213C22.9396 23.6839 22.1765 24 21.3809 24H3.38086C2.58521 24 1.82215 23.6839 1.25954 23.1213C0.69693 22.5587 0.380859 21.7956 0.380859 21V4.5C0.380859 3.70435 0.69693 2.94129 1.25954 2.37868C1.82215 1.81607 2.58521 1.5 3.38086 1.5H4.88086V0.75C4.88086 0.551088 4.95988 0.360322 5.10053 0.21967C5.24118 0.0790176 5.43195 0 5.63086 0V0ZM1.88086 6V21C1.88086 21.3978 2.03889 21.7794 2.3202 22.0607C2.6015 22.342 2.98303 22.5 3.38086 22.5H21.3809C21.7787 22.5 22.1602 22.342 22.4415 22.0607C22.7228 21.7794 22.8809 21.3978 22.8809 21V6H1.88086Z" fill="black"/>
</svg>
