<svg width="26" height="24" viewBox="0 0 26 24" fill="none" xmlns="http://www.w3.org/2000/svg">
<path d="M21.5567 0H3.87248C2.86745 0 1.90358 0.399247 1.19292 1.10991C0.482255 1.82058 0.0830078 2.78444 0.0830078 3.78947V22.7368C0.0833935 22.9607 0.143246 23.1804 0.25644 23.3735C0.369634 23.5666 0.532103 23.7261 0.727218 23.8358C0.916004 23.9428 1.12917 23.9993 1.34617 24C1.57288 23.9999 1.7954 23.9388 1.99038 23.8232L7.66196 20.3874C7.8716 20.2626 8.11289 20.2011 8.35669 20.2105H21.5567C22.5617 20.2105 23.5256 19.8113 24.2363 19.1006C24.9469 18.39 25.3462 17.4261 25.3462 16.4211V3.78947C25.3462 2.78444 24.9469 1.82058 24.2363 1.10991C23.5256 0.399247 22.5617 0 21.5567 0ZM7.66196 11.3684C7.41213 11.3684 7.16791 11.2943 6.96018 11.1555C6.75246 11.0167 6.59056 10.8195 6.49495 10.5887C6.39934 10.3578 6.37433 10.1039 6.42307 9.85883C6.47181 9.6138 6.59211 9.38873 6.76877 9.21208C6.94542 9.03542 7.1705 8.91512 7.41553 8.86638C7.66055 8.81764 7.91453 8.84265 8.14535 8.93826C8.37616 9.03386 8.57344 9.19576 8.71223 9.40349C8.85103 9.61121 8.92511 9.85543 8.92511 10.1053C8.92511 10.4403 8.79203 10.7616 8.55514 10.9984C8.31825 11.2353 7.99697 11.3684 7.66196 11.3684V11.3684ZM12.7146 11.3684C12.4648 11.3684 12.2205 11.2943 12.0128 11.1555C11.8051 11.0167 11.6432 10.8195 11.5476 10.5887C11.452 10.3578 11.427 10.1039 11.4757 9.85883C11.5244 9.6138 11.6447 9.38873 11.8214 9.21208C11.9981 9.03542 12.2231 8.91512 12.4682 8.86638C12.7132 8.81764 12.9672 8.84265 13.198 8.93826C13.4288 9.03386 13.6261 9.19576 13.7649 9.40349C13.9037 9.61121 13.9777 9.85543 13.9777 10.1053C13.9777 10.4403 13.8447 10.7616 13.6078 10.9984C13.3709 11.2353 13.0496 11.3684 12.7146 11.3684ZM17.7672 11.3684C17.5174 11.3684 17.2732 11.2943 17.0654 11.1555C16.8577 11.0167 16.6958 10.8195 16.6002 10.5887C16.5046 10.3578 16.4796 10.1039 16.5283 9.85883C16.5771 9.6138 16.6974 9.38873 16.874 9.21208C17.0507 9.03542 17.2758 8.91512 17.5208 8.86638C17.7658 8.81764 18.0198 8.84265 18.2506 8.93826C18.4814 9.03386 18.6787 9.19576 18.8175 9.40349C18.9563 9.61121 19.0304 9.85543 19.0304 10.1053C19.0304 10.4403 18.8973 10.7616 18.6604 10.9984C18.4235 11.2353 18.1022 11.3684 17.7672 11.3684Z" fill="black"/>
</svg>
