<svg width="21" height="21" viewBox="0 0 21 21" fill="none" xmlns="http://www.w3.org/2000/svg">
<path d="M19.7309 18.8558L16.0209 15.1758C17.461 13.3802 18.1584 11.1011 17.9697 8.80712C17.781 6.51312 16.7206 4.3786 15.0064 2.84247C13.2923 1.30633 11.0547 0.485332 8.75382 0.548293C6.45294 0.611253 4.26362 1.55338 2.63604 3.18096C1.00846 4.80854 0.0663314 6.99786 0.00337096 9.29875C-0.0595894 11.5996 0.761407 13.8372 2.29754 15.5513C3.83368 17.2655 5.9682 18.3259 8.2622 18.5146C10.5562 18.7033 12.8353 18.0059 14.6309 16.5658L18.3109 20.2458C18.4039 20.3396 18.5145 20.4139 18.6363 20.4647C18.7582 20.5155 18.8889 20.5416 19.0209 20.5416C19.1529 20.5416 19.2836 20.5155 19.4055 20.4647C19.5273 20.4139 19.6379 20.3396 19.7309 20.2458C19.9111 20.0594 20.0119 19.8102 20.0119 19.5508C20.0119 19.2915 19.9111 19.0423 19.7309 18.8558ZM9.0209 16.5658C7.63643 16.5658 6.28305 16.1553 5.13191 15.3861C3.98076 14.6169 3.08356 13.5237 2.55374 12.2446C2.02393 10.9655 1.88531 9.55806 2.1554 8.20019C2.4255 6.84232 3.09219 5.59504 4.07115 4.61608C5.05012 3.63711 6.2974 2.97042 7.65527 2.70033C9.01314 2.43023 10.4206 2.56885 11.6997 3.09867C12.9788 3.62848 14.072 4.52569 14.8412 5.67683C15.6104 6.82797 16.0209 8.18135 16.0209 9.56582C16.0209 11.4223 15.2834 13.2028 13.9706 14.5156C12.6579 15.8283 10.8774 16.5658 9.0209 16.5658Z" fill="black"/>
</svg>
